<svg width="24" height="24" viewBox="0 0 24 24" fill="none" xmlns="http://www.w3.org/2000/svg">
<path d="M6 12.0006C6.00486 11.4745 6.21684 10.9715 6.59 10.6006L10.88 6.30056C11.0674 6.11431 11.3208 6.00977 11.585 6.00977C11.8492 6.00977 12.1026 6.11431 12.29 6.30056C12.3837 6.39352 12.4581 6.50412 12.5089 6.62598C12.5597 6.74784 12.5858 6.87855 12.5858 7.01056C12.5858 7.14257 12.5597 7.27328 12.5089 7.39513C12.4581 7.51699 12.3837 7.6276 12.29 7.72056L9 11.0006H19C19.2652 11.0006 19.5196 11.1059 19.7071 11.2935C19.8946 11.481 20 11.7353 20 12.0006C20 12.2658 19.8946 12.5201 19.7071 12.7077C19.5196 12.8952 19.2652 13.0006 19 13.0006H9L12.29 16.2906C12.4783 16.4775 12.5846 16.7317 12.5856 16.997C12.5865 17.2624 12.482 17.5173 12.295 17.7056C12.108 17.8939 11.8539 18.0002 11.5885 18.0011C11.3232 18.0021 11.0683 17.8975 10.88 17.7106L6.59 13.4106C6.21441 13.0372 6.00223 12.5301 6 12.0006Z" fill="#0778D4"/>
</svg>
