<svg width="13" height="15" viewBox="0 0 13 15" fill="none" xmlns="http://www.w3.org/2000/svg">
<path d="M1.37733 14.564C0.992444 14.564 0.666667 14.4307 0.4 14.164C0.133333 13.8973 0 13.5716 0 13.1867V2.98895C0 2.60406 0.133333 2.27829 0.4 2.01162C0.666667 1.74495 0.992444 1.61162 1.37733 1.61162H2.43219V0.585905C2.43219 0.418921 2.48813 0.279492 2.6 0.167619C2.71187 0.0558728 2.8513 0 3.01829 0C3.1854 0 3.32483 0.0558728 3.43657 0.167619C3.54844 0.279492 3.60438 0.418921 3.60438 0.585905V1.61162H9.37733V0.571429C9.37733 0.40927 9.432 0.27346 9.54133 0.164C9.65079 0.0546664 9.7866 0 9.94876 0C10.1109 0 10.2467 0.0546664 10.356 0.164C10.4655 0.27346 10.5202 0.40927 10.5202 0.571429V1.61162H11.575C11.9599 1.61162 12.2857 1.74495 12.5524 2.01162C12.819 2.27829 12.9524 2.60406 12.9524 2.98895V13.1867C12.9524 13.5716 12.819 13.8973 12.5524 14.164C12.2857 14.4307 11.9599 14.564 11.575 14.564H1.37733ZM1.37733 13.4211H11.575C11.6337 13.4211 11.6874 13.3967 11.7362 13.3478C11.7851 13.2991 11.8095 13.2453 11.8095 13.1867V6.03657H1.14286V13.1867C1.14286 13.2453 1.1673 13.2991 1.21619 13.3478C1.26495 13.3967 1.31867 13.4211 1.37733 13.4211ZM6.47619 8.90838C6.28965 8.90838 6.13067 8.84267 5.99924 8.71124C5.86794 8.57994 5.80229 8.42096 5.80229 8.23429C5.80229 8.04775 5.86794 7.88876 5.99924 7.75734C6.13067 7.62603 6.28965 7.56038 6.47619 7.56038C6.66273 7.56038 6.82171 7.62603 6.95314 7.75734C7.08444 7.88876 7.1501 8.04775 7.1501 8.23429C7.1501 8.42096 7.08444 8.57994 6.95314 8.71124C6.82171 8.84267 6.66273 8.90838 6.47619 8.90838ZM3.42857 8.90838C3.24203 8.90838 3.08305 8.84267 2.95162 8.71124C2.82032 8.57994 2.75467 8.42096 2.75467 8.23429C2.75467 8.04775 2.82032 7.88876 2.95162 7.75734C3.08305 7.62603 3.24203 7.56038 3.42857 7.56038C3.61511 7.56038 3.7741 7.62603 3.90552 7.75734C4.03683 7.88876 4.10248 8.04775 4.10248 8.23429C4.10248 8.42096 4.03683 8.57994 3.90552 8.71124C3.7741 8.84267 3.61511 8.90838 3.42857 8.90838ZM9.52381 8.90838C9.33727 8.90838 9.17829 8.84267 9.04686 8.71124C8.91556 8.57994 8.84991 8.42096 8.84991 8.23429C8.84991 8.04775 8.91556 7.88876 9.04686 7.75734C9.17829 7.62603 9.33727 7.56038 9.52381 7.56038C9.71035 7.56038 9.86933 7.62603 10.0008 7.75734C10.1321 7.88876 10.1977 8.04775 10.1977 8.23429C10.1977 8.42096 10.1321 8.57994 10.0008 8.71124C9.86933 8.84267 9.71035 8.90838 9.52381 8.90838ZM6.47619 11.8973C6.28965 11.8973 6.13067 11.8316 5.99924 11.7002C5.86794 11.5689 5.80229 11.41 5.80229 11.2234C5.80229 11.0368 5.86794 10.8778 5.99924 10.7465C6.13067 10.6151 6.28965 10.5493 6.47619 10.5493C6.66273 10.5493 6.82171 10.6151 6.95314 10.7465C7.08444 10.8778 7.1501 11.0368 7.1501 11.2234C7.1501 11.41 7.08444 11.5689 6.95314 11.7002C6.82171 11.8316 6.66273 11.8973 6.47619 11.8973ZM3.42857 11.8973C3.24203 11.8973 3.08305 11.8316 2.95162 11.7002C2.82032 11.5689 2.75467 11.41 2.75467 11.2234C2.75467 11.0368 2.82032 10.8778 2.95162 10.7465C3.08305 10.6151 3.24203 10.5493 3.42857 10.5493C3.61511 10.5493 3.7741 10.6151 3.90552 10.7465C4.03683 10.8778 4.10248 11.0368 4.10248 11.2234C4.10248 11.41 4.03683 11.5689 3.90552 11.7002C3.7741 11.8316 3.61511 11.8973 3.42857 11.8973ZM9.52381 11.8973C9.33727 11.8973 9.17829 11.8316 9.04686 11.7002C8.91556 11.5689 8.84991 11.41 8.84991 11.2234C8.84991 11.0368 8.91556 10.8778 9.04686 10.7465C9.17829 10.6151 9.33727 10.5493 9.52381 10.5493C9.71035 10.5493 9.86933 10.6151 10.0008 10.7465C10.1321 10.8778 10.1977 11.0368 10.1977 11.2234C10.1977 11.41 10.1321 11.5689 10.0008 11.7002C9.86933 11.8316 9.71035 11.8973 9.52381 11.8973Z" fill="#0778D4"/>
</svg>
