<svg width="14" height="14" viewBox="0 0 14 14" fill="none" xmlns="http://www.w3.org/2000/svg">
<path d="M12.25 8.46562L9.67477 7.31117L9.66493 7.30679C9.49753 7.23463 9.31472 7.20558 9.1332 7.2223C8.95169 7.23901 8.77726 7.30097 8.62586 7.4025C8.60464 7.4167 8.5842 7.43204 8.56461 7.44843L7.34454 8.4875C6.6336 8.10195 5.89914 7.37351 5.51305 6.67132L6.55539 5.43211C6.57215 5.41211 6.58767 5.3911 6.60188 5.36922C6.70074 5.21836 6.76077 5.0454 6.77661 4.86573C6.79245 4.68607 6.76361 4.50527 6.69266 4.33945C6.69098 4.33627 6.68951 4.33298 6.68829 4.32961L5.53438 1.75C5.43966 1.53427 5.27801 1.35476 5.07334 1.23805C4.86867 1.12134 4.63187 1.07362 4.39797 1.10195C3.60411 1.20623 2.87536 1.59593 2.34781 2.19824C1.82027 2.80056 1.53001 3.57432 1.53125 4.375C1.53125 8.83804 5.16196 12.4687 9.625 12.4687C10.4257 12.47 11.1994 12.1797 11.8018 11.6522C12.4041 11.1246 12.7938 10.3959 12.8981 9.60203C12.9264 9.36813 12.8787 9.13133 12.762 8.92666C12.6452 8.72199 12.4657 8.56034 12.25 8.46562ZM9.625 11.1562C7.82717 11.1541 6.10359 10.4389 4.83233 9.16767C3.56107 7.89641 2.84592 6.17283 2.84375 4.375C2.8425 3.92191 2.99632 3.48203 3.27966 3.12846C3.56299 2.77489 3.95878 2.52891 4.40125 2.4314L5.43047 4.72828L4.38266 5.97625C4.36572 5.99643 4.35002 6.01761 4.33563 6.03968C4.23235 6.19749 4.17163 6.37931 4.15937 6.56751C4.1471 6.7557 4.18371 6.94387 4.26563 7.11375C4.78079 8.16812 5.84227 9.2225 6.90758 9.73875C7.07859 9.81982 7.26771 9.85513 7.45645 9.84123C7.64519 9.82733 7.82709 9.7647 7.98438 9.65945C8.00553 9.64519 8.0258 9.62966 8.04508 9.61296L9.27172 8.57007L11.5686 9.59875C11.4711 10.0412 11.2251 10.437 10.8715 10.7203C10.518 11.0037 10.0781 11.1575 9.625 11.1562Z" fill="#FCDE1E"/>
</svg>
