<svg width="64" height="64" viewBox="0 0 64 64" fill="none" xmlns="http://www.w3.org/2000/svg">
<circle cx="32" cy="32" r="32" fill="#EBF6FE"/>
<path d="M36 35C36 35.5304 35.7893 36.0391 35.4142 36.4142C35.0391 36.7893 34.5304 37 34 37H33V33H34C34.5304 33 35.0391 33.2107 35.4142 33.5858C35.7893 33.9609 36 34.4696 36 35ZM45 32C45 34.5712 44.2376 37.0846 42.8091 39.2224C41.3807 41.3603 39.3503 43.0265 36.9749 44.0104C34.5995 44.9944 31.9856 45.2518 29.4638 44.7502C26.9421 44.2486 24.6257 43.0105 22.8076 41.1924C20.9895 39.3743 19.7514 37.0579 19.2498 34.5362C18.7482 32.0144 19.0056 29.4006 19.9896 27.0251C20.9735 24.6497 22.6398 22.6194 24.7776 21.1909C26.9154 19.7624 29.4288 19 32 19C35.4467 19.0036 38.7512 20.3744 41.1884 22.8116C43.6256 25.2488 44.9964 28.5533 45 32ZM38 35C38 33.9391 37.5786 32.9217 36.8284 32.1716C36.0783 31.4214 35.0609 31 34 31H33V27H33.5C34.0304 27 34.5391 27.2107 34.9142 27.5858C35.2893 27.9609 35.5 28.4696 35.5 29C35.5 29.2652 35.6054 29.5196 35.7929 29.7071C35.9804 29.8946 36.2348 30 36.5 30C36.7652 30 37.0196 29.8946 37.2071 29.7071C37.3946 29.5196 37.5 29.2652 37.5 29C37.5 27.9391 37.0786 26.9217 36.3284 26.1716C35.5783 25.4214 34.5609 25 33.5 25H33V24C33 23.7348 32.8946 23.4804 32.7071 23.2929C32.5196 23.1054 32.2652 23 32 23C31.7348 23 31.4804 23.1054 31.2929 23.2929C31.1054 23.4804 31 23.7348 31 24V25H30.5C29.4391 25 28.4217 25.4214 27.6716 26.1716C26.9214 26.9217 26.5 27.9391 26.5 29C26.5 30.0609 26.9214 31.0783 27.6716 31.8284C28.4217 32.5786 29.4391 33 30.5 33H31V37H30C29.4696 37 28.9609 36.7893 28.5858 36.4142C28.2107 36.0391 28 35.5304 28 35C28 34.7348 27.8946 34.4804 27.7071 34.2929C27.5196 34.1054 27.2652 34 27 34C26.7348 34 26.4804 34.1054 26.2929 34.2929C26.1054 34.4804 26 34.7348 26 35C26 36.0609 26.4214 37.0783 27.1716 37.8284C27.9217 38.5786 28.9391 39 30 39H31V40C31 40.2652 31.1054 40.5196 31.2929 40.7071C31.4804 40.8946 31.7348 41 32 41C32.2652 41 32.5196 40.8946 32.7071 40.7071C32.8946 40.5196 33 40.2652 33 40V39H34C35.0609 39 36.0783 38.5786 36.8284 37.8284C37.5786 37.0783 38 36.0609 38 35ZM28.5 29C28.5 29.5304 28.7107 30.0391 29.0858 30.4142C29.4609 30.7893 29.9696 31 30.5 31H31V27H30.5C29.9696 27 29.4609 27.2107 29.0858 27.5858C28.7107 27.9609 28.5 28.4696 28.5 29Z" fill="#0778D4"/>
</svg>
