<svg width="26" height="26" viewBox="0 0 26 26" fill="none" xmlns="http://www.w3.org/2000/svg">
<path d="M17 16C17 16.5304 16.7893 17.0391 16.4142 17.4142C16.0391 17.7893 15.5304 18 15 18H14V14H15C15.5304 14 16.0391 14.2107 16.4142 14.5858C16.7893 14.9609 17 15.4696 17 16ZM26 13C26 15.5712 25.2376 18.0846 23.8091 20.2224C22.3807 22.3603 20.3503 24.0265 17.9749 25.0104C15.5995 25.9944 12.9856 26.2518 10.4638 25.7502C7.94208 25.2486 5.6257 24.0105 3.80762 22.1924C1.98953 20.3743 0.751405 18.0579 0.249797 15.5362C-0.251811 13.0144 0.0056327 10.4006 0.989572 8.02512C1.97351 5.64968 3.63975 3.61935 5.77759 2.1909C7.91543 0.762437 10.4288 0 13 0C16.4467 0.00363977 19.7512 1.37445 22.1884 3.81163C24.6256 6.24882 25.9964 9.5533 26 13ZM19 16C19 14.9391 18.5786 13.9217 17.8284 13.1716C17.0783 12.4214 16.0609 12 15 12H14V8H14.5C15.0304 8 15.5391 8.21071 15.9142 8.58579C16.2893 8.96086 16.5 9.46957 16.5 10C16.5 10.2652 16.6054 10.5196 16.7929 10.7071C16.9804 10.8946 17.2348 11 17.5 11C17.7652 11 18.0196 10.8946 18.2071 10.7071C18.3946 10.5196 18.5 10.2652 18.5 10C18.5 8.93913 18.0786 7.92172 17.3284 7.17157C16.5783 6.42143 15.5609 6 14.5 6H14V5C14 4.73478 13.8946 4.48043 13.7071 4.29289C13.5196 4.10536 13.2652 4 13 4C12.7348 4 12.4804 4.10536 12.2929 4.29289C12.1054 4.48043 12 4.73478 12 5V6H11.5C10.4391 6 9.42172 6.42143 8.67158 7.17157C7.92143 7.92172 7.50001 8.93913 7.50001 10C7.50001 11.0609 7.92143 12.0783 8.67158 12.8284C9.42172 13.5786 10.4391 14 11.5 14H12V18H11C10.4696 18 9.96087 17.7893 9.58579 17.4142C9.21072 17.0391 9.00001 16.5304 9.00001 16C9.00001 15.7348 8.89465 15.4804 8.70711 15.2929C8.51958 15.1054 8.26522 15 8.00001 15C7.73479 15 7.48044 15.1054 7.2929 15.2929C7.10536 15.4804 7.00001 15.7348 7.00001 16C7.00001 17.0609 7.42143 18.0783 8.17158 18.8284C8.92172 19.5786 9.93914 20 11 20H12V21C12 21.2652 12.1054 21.5196 12.2929 21.7071C12.4804 21.8946 12.7348 22 13 22C13.2652 22 13.5196 21.8946 13.7071 21.7071C13.8946 21.5196 14 21.2652 14 21V20H15C16.0609 20 17.0783 19.5786 17.8284 18.8284C18.5786 18.0783 19 17.0609 19 16ZM9.50001 10C9.50001 10.5304 9.71072 11.0391 10.0858 11.4142C10.4609 11.7893 10.9696 12 11.5 12H12V8H11.5C10.9696 8 10.4609 8.21071 10.0858 8.58579C9.71072 8.96086 9.50001 9.46957 9.50001 10Z" fill="#0778D4"/>
</svg>
