<svg width="19" height="19" viewBox="0 0 19 19" fill="none" xmlns="http://www.w3.org/2000/svg">
<path d="M9.375 0C7.5208 0 5.70824 0.549834 4.16653 1.57997C2.62482 2.61011 1.42321 4.07429 0.713633 5.78734C0.00406189 7.5004 -0.181594 9.3854 0.180142 11.204C0.541879 13.0225 1.43476 14.693 2.74588 16.0041C4.057 17.3152 5.72746 18.2081 7.54603 18.5699C9.3646 18.9316 11.2496 18.7459 12.9627 18.0364C14.6757 17.3268 16.1399 16.1252 17.17 14.5835C18.2002 13.0418 18.75 11.2292 18.75 9.375C18.7473 6.88943 17.7587 4.50645 16.0011 2.74889C14.2436 0.991327 11.8606 0.00272962 9.375 0ZM9.75 17.9916V11.25H12.375C12.4745 11.25 12.5698 11.2105 12.6402 11.1402C12.7105 11.0698 12.75 10.9745 12.75 10.875C12.75 10.7755 12.7105 10.6802 12.6402 10.6098C12.5698 10.5395 12.4745 10.5 12.375 10.5H9.75V7.875C9.75 7.37772 9.94755 6.90081 10.2992 6.54917C10.6508 6.19754 11.1277 6 11.625 6H13.125C13.2245 6 13.3198 5.96049 13.3902 5.89017C13.4605 5.81984 13.5 5.72446 13.5 5.625C13.5 5.52554 13.4605 5.43016 13.3902 5.35983C13.3198 5.28951 13.2245 5.25 13.125 5.25H11.625C10.9288 5.25 10.2611 5.52656 9.76885 6.01884C9.27657 6.51113 9 7.17881 9 7.875V10.5H6.375C6.27555 10.5 6.18017 10.5395 6.10984 10.6098C6.03951 10.6802 6 10.7755 6 10.875C6 10.9745 6.03951 11.0698 6.10984 11.1402C6.18017 11.2105 6.27555 11.25 6.375 11.25H9V17.9916C6.74712 17.8935 4.62224 16.9171 3.08055 15.2714C1.53887 13.6257 0.70301 11.4417 0.752043 9.18717C0.801077 6.93269 1.7311 4.78708 3.34288 3.20997C4.95466 1.63287 7.11999 0.749719 9.375 0.749719C11.63 0.749719 13.7954 1.63287 15.4071 3.20997C17.0189 4.78708 17.9489 6.93269 17.998 9.18717C18.047 11.4417 17.2111 13.6257 15.6695 15.2714C14.1278 16.9171 12.0029 17.8935 9.75 17.9916Z" fill="#1E1F24"/>
</svg>
