<svg width="15" height="18" viewBox="0 0 15 18" fill="none" xmlns="http://www.w3.org/2000/svg">
<path d="M11.1492 2.95687C10.1128 1.86479 8.94666 0.903743 7.67667 0.0952065C7.57298 0.0329109 7.4543 0 7.33333 0C7.21237 0 7.09369 0.0329109 6.99 0.0952065C5.72001 0.903743 4.55382 1.86479 3.5175 2.95687C1.21583 5.37354 0 8.03937 0 10.6669C0 12.6118 0.772617 14.4771 2.14788 15.8523C3.52315 17.2276 5.38841 18.0002 7.33333 18.0002C9.27825 18.0002 11.1435 17.2276 12.5188 15.8523C13.8941 14.4771 14.6667 12.6118 14.6667 10.6669C14.6667 8.03937 13.4508 5.37354 11.1492 2.95687ZM4.66667 14.0002C4.66667 11.6944 6.54417 10.0602 7.33333 9.47521C8.12333 10.0585 10 11.6944 10 14.0002C10 14.7075 9.71905 15.3857 9.21895 15.8858C8.71885 16.3859 8.04058 16.6669 7.33333 16.6669C6.62609 16.6669 5.94781 16.3859 5.44772 15.8858C4.94762 15.3857 4.66667 14.7075 4.66667 14.0002Z" fill="#0778D4"/>
</svg>
