<svg width="29" height="23" viewBox="0 0 29 23" fill="none" xmlns="http://www.w3.org/2000/svg">
<path d="M27.6396 13.0873C27.3257 12.8454 26.9658 12.6699 26.5819 12.5715C26.1979 12.4731 25.798 12.4538 25.4064 12.5149C27.66 10.2397 28.8 7.97771 28.8 5.76011C28.8 2.58371 26.2452 0.000112595 23.1048 0.000112595C22.2715 -0.00512022 21.4472 0.172102 20.6897 0.519338C19.9322 0.866574 19.2599 1.37541 18.72 2.01011C18.1801 1.37541 17.5078 0.866574 16.7503 0.519338C15.9928 0.172102 15.1685 -0.00512022 14.3352 0.000112595C11.1948 0.000112595 8.64 2.58371 8.64 5.76011C8.64 7.08011 9.0288 8.36291 9.8472 9.72011C9.17692 9.88993 8.56523 10.2383 8.0772 10.7281L5.3628 13.4401H1.92C1.41078 13.4401 0.922425 13.6424 0.562355 14.0025C0.202285 14.3625 0 14.8509 0 15.3601L0 20.1601C0 20.6693 0.202285 21.1577 0.562355 21.5178C0.922425 21.8778 1.41078 22.0801 1.92 22.0801H14.4C14.4785 22.0801 14.5567 22.0705 14.6328 22.0513L22.3128 20.1313C22.3618 20.1197 22.4095 20.1036 22.4556 20.0833L27.12 18.0985L27.1728 18.0745C27.6211 17.8505 28.005 17.5161 28.2883 17.1027C28.5716 16.6893 28.745 16.2107 28.7922 15.7117C28.8393 15.2128 28.7587 14.7101 28.5579 14.251C28.3571 13.7918 28.0427 13.3914 27.6444 13.0873H27.6396ZM26.3316 16.3453L21.7716 18.2869L14.28 20.1601H6.72V14.7973L9.4356 12.0829C9.61324 11.9038 9.82471 11.7619 10.0577 11.6653C10.2907 11.5686 10.5406 11.5193 10.7928 11.5201H16.8C17.1819 11.5201 17.5482 11.6718 17.8182 11.9419C18.0883 12.2119 18.24 12.5782 18.24 12.9601C18.24 13.342 18.0883 13.7083 17.8182 13.9783C17.5482 14.2484 17.1819 14.4001 16.8 14.4001H13.44C13.1854 14.4001 12.9412 14.5013 12.7612 14.6813C12.5811 14.8613 12.48 15.1055 12.48 15.3601C12.48 15.6147 12.5811 15.8589 12.7612 16.0389C12.9412 16.219 13.1854 16.3201 13.44 16.3201H17.28C17.3523 16.3199 17.4243 16.3119 17.4948 16.2961L25.5348 14.4469L25.572 14.4373C25.8174 14.3692 26.0794 14.3942 26.3075 14.5076C26.5356 14.621 26.7137 14.8147 26.8075 15.0516C26.9013 15.2884 26.9043 15.5515 26.8157 15.7903C26.7272 16.0292 26.5535 16.2269 26.328 16.3453H26.3316Z" fill="#0778D4"/>
</svg>
