<svg width="17" height="13" viewBox="0 0 17 13" fill="none" xmlns="http://www.w3.org/2000/svg">
<path d="M14.375 0H1.875C1.37772 0 0.900806 0.197544 0.549175 0.549175C0.197544 0.900806 0 1.37772 0 1.875V10.625C0 11.1223 0.197544 11.5992 0.549175 11.9508C0.900806 12.3025 1.37772 12.5 1.875 12.5H14.375C14.8723 12.5 15.3492 12.3025 15.7008 11.9508C16.0525 11.5992 16.25 11.1223 16.25 10.625V1.875C16.25 1.37772 16.0525 0.900806 15.7008 0.549175C15.3492 0.197544 14.8723 0 14.375 0ZM10 5.625C10 6.12228 9.80246 6.59919 9.45083 6.95083C9.09919 7.30246 8.62228 7.5 8.125 7.5C7.62772 7.5 7.15081 7.30246 6.79917 6.95083C6.44754 6.59919 6.25 6.12228 6.25 5.625C6.25 5.45924 6.18415 5.30027 6.06694 5.18306C5.94973 5.06585 5.79076 5 5.625 5H1.25V3.75H15V5H10.625C10.4592 5 10.3003 5.06585 10.1831 5.18306C10.0658 5.30027 10 5.45924 10 5.625ZM1.875 1.25H14.375C14.5408 1.25 14.6997 1.31585 14.8169 1.43306C14.9342 1.55027 15 1.70924 15 1.875V2.5H1.25V1.875C1.25 1.70924 1.31585 1.55027 1.43306 1.43306C1.55027 1.31585 1.70924 1.25 1.875 1.25Z" fill="#0778D4"/>
</svg>
