<svg width="14" height="14" viewBox="0 0 14 14" fill="none" xmlns="http://www.w3.org/2000/svg">
<path d="M7 1.09375C5.83186 1.09375 4.68994 1.44015 3.71867 2.08913C2.74739 2.73812 1.99037 3.66055 1.54334 4.73978C1.09631 5.819 0.979346 7.00655 1.20724 8.15225C1.43513 9.29795 1.99765 10.3503 2.82365 11.1763C3.64966 12.0024 4.70205 12.5649 5.84775 12.7928C6.99345 13.0207 8.181 12.9037 9.26023 12.4567C10.3395 12.0096 11.2619 11.2526 11.9109 10.2813C12.5599 9.31006 12.9063 8.16815 12.9063 7C12.9045 5.4341 12.2817 3.93283 11.1744 2.82557C10.0672 1.71831 8.5659 1.09549 7 1.09375ZM11.5462 6.34375H9.81969C9.73293 5.05682 9.33204 3.81078 8.65211 2.71469C9.41261 3.00921 10.0813 3.50038 10.5897 4.13799C11.0982 4.7756 11.4283 5.53679 11.5462 6.34375ZM7 11.3203C6.48813 10.7291 5.66235 9.50852 5.49883 7.65625H8.50336C8.42167 8.67819 8.10116 9.66667 7.56766 10.5421C7.39982 10.8165 7.20998 11.0767 7 11.3203ZM5.49883 6.34375C5.58053 5.32181 5.90103 4.33333 6.43453 3.45789C6.60167 3.18363 6.79078 2.92337 7 2.67969C7.51188 3.27086 8.33766 4.49148 8.50117 6.34375H5.49883ZM5.34789 2.71469C4.66796 3.81078 4.26707 5.05682 4.18032 6.34375H2.45383C2.57174 5.53679 2.90179 4.7756 3.41027 4.13799C3.91874 3.50038 4.5874 3.00921 5.34789 2.71469ZM2.45383 7.65625H4.18032C4.26707 8.94318 4.66796 10.1892 5.34789 11.2853C4.5874 10.9908 3.91874 10.4996 3.41027 9.86201C2.90179 9.2244 2.57174 8.46321 2.45383 7.65625ZM8.65211 11.2853C9.33204 10.1892 9.73293 8.94318 9.81969 7.65625H11.5462C11.4283 8.46321 11.0982 9.2244 10.5897 9.86201C10.0813 10.4996 9.41261 10.9908 8.65211 11.2853Z" fill="white"/>
</svg>
