<svg width="42" height="42" viewBox="0 0 42 42" fill="none" xmlns="http://www.w3.org/2000/svg">
<path d="M5.32507 17.1219C5.04642 16.8433 4.82538 16.5126 4.67457 16.1486C4.52376 15.7845 4.44614 15.3944 4.44614 15.0003C4.44614 14.6063 4.52376 14.2162 4.67457 13.8521C4.82538 13.4881 5.04642 13.1574 5.32507 12.8788L17.3251 0.87878C17.8877 0.316107 18.6509 -5.92873e-09 19.4466 0C20.2424 5.92873e-09 21.0055 0.316107 21.5682 0.87878C22.1309 1.44145 22.447 2.2046 22.447 3.00034C22.447 3.79608 22.1309 4.55923 21.5682 5.12191L9.56819 17.1219C9.28961 17.4006 8.95886 17.6216 8.59484 17.7724C8.23081 17.9232 7.84065 18.0008 7.44663 18.0008C7.0526 18.0008 6.66244 17.9232 6.29842 17.7724C5.9344 17.6216 5.60365 17.4006 5.32507 17.1219ZM41.0682 20.3788C40.7896 20.1001 40.4589 19.8791 40.0948 19.7283C39.7308 19.5775 39.3407 19.4999 38.9466 19.4999C38.5526 19.4999 38.1624 19.5775 37.7984 19.7283C37.4344 19.8791 37.1037 20.1001 36.8251 20.3788L24.8251 32.3788C24.5464 32.6574 24.3254 32.9881 24.1746 33.3521C24.0238 33.7162 23.9461 34.1063 23.9461 34.5003C23.9461 34.8944 24.0238 35.2845 24.1746 35.6485C24.3254 36.0126 24.5464 36.3433 24.8251 36.6219C25.1037 36.9006 25.4344 37.1216 25.7984 37.2724C26.1624 37.4232 26.5526 37.5008 26.9466 37.5008C27.3407 37.5008 27.7308 37.4232 28.0948 37.2724C28.4589 37.1216 28.7896 36.9006 29.0682 36.6219L41.0682 24.6219C41.3468 24.3433 41.5679 24.0126 41.7187 23.6486C41.8695 23.2845 41.9471 22.8944 41.9471 22.5003C41.9471 22.1063 41.8695 21.7162 41.7187 21.3521C41.5679 20.9881 41.3468 20.6574 41.0682 20.3788ZM34.4851 17.4163L24.5307 7.46191C24.461 7.39217 24.3783 7.33685 24.2873 7.29911C24.1962 7.26137 24.0986 7.24194 24.0001 7.24194C23.9015 7.24194 23.8039 7.26137 23.7129 7.29911C23.6218 7.33685 23.5391 7.39217 23.4694 7.46191L11.9082 19.0232C11.8385 19.0928 11.7831 19.1755 11.7454 19.2666C11.7077 19.3576 11.6882 19.4552 11.6882 19.5538C11.6882 19.6523 11.7077 19.7499 11.7454 19.841C11.7831 19.932 11.8385 20.0148 11.9082 20.0844L14.7582 22.94L0.825065 36.8807C0.286205 37.4478 -0.00976956 38.2031 0.000246154 38.9854C0.0102619 39.7677 0.325476 40.5151 0.87868 41.0683C1.43188 41.6215 2.17931 41.9367 2.96159 41.9467C3.74388 41.9567 4.49913 41.6608 5.06632 41.1219L19.0069 27.1888L21.8626 30.0444C21.9322 30.1141 22.0149 30.1695 22.106 30.2072C22.197 30.2449 22.2946 30.2644 22.3932 30.2644C22.4918 30.2644 22.5893 30.2449 22.6804 30.2072C22.7714 30.1695 22.8542 30.1141 22.9238 30.0444L34.4851 18.4832C34.5556 18.4134 34.6117 18.3303 34.6499 18.2388C34.6882 18.1472 34.7079 18.049 34.7079 17.9497C34.7079 17.8505 34.6882 17.7522 34.6499 17.6607C34.6117 17.5691 34.5556 17.486 34.4851 17.4163Z" fill="#0778D4"/>
</svg>
