<svg width="21" height="18" viewBox="0 0 21 18" fill="none" xmlns="http://www.w3.org/2000/svg">
<path d="M14.8125 0C12.8025 0 11.07 0.955313 10.125 2.53781C9.18 0.955313 7.4475 0 5.4375 0C3.99592 0.0017367 2.61388 0.575172 1.59452 1.59452C0.575172 2.61388 0.0017367 3.99592 0 5.4375C0 8.11781 1.6875 10.9191 5.00625 13.7616C6.5386 15.0655 8.19313 16.2187 9.94687 17.205C10.0016 17.2345 10.0628 17.25 10.125 17.25C10.1872 17.25 10.2484 17.2345 10.3031 17.205C12.0569 16.2187 13.7114 15.0655 15.2438 13.7616C18.5625 10.9191 20.25 8.11781 20.25 5.4375C20.2483 3.99592 19.6748 2.61388 18.6555 1.59452C17.6361 0.575172 16.2541 0.0017367 14.8125 0ZM10.125 16.4456C8.8125 15.6956 0.75 10.8816 0.75 5.4375C0.751489 4.19475 1.24583 3.00334 2.12458 2.12458C3.00334 1.24583 4.19475 0.751489 5.4375 0.75C7.41656 0.75 9.07969 1.81031 9.77813 3.51656C9.80638 3.58534 9.85444 3.64417 9.9162 3.68557C9.97797 3.72697 10.0506 3.74908 10.125 3.74908C10.1994 3.74908 10.272 3.72697 10.3338 3.68557C10.3956 3.64417 10.4436 3.58534 10.4719 3.51656C11.1703 1.81031 12.8334 0.75 14.8125 0.75C16.0552 0.751489 17.2467 1.24583 18.1254 2.12458C19.0042 3.00334 19.4985 4.19475 19.5 5.4375C19.5 10.875 11.4375 15.6994 10.125 16.4456Z" fill="#1E1F24"/>
</svg>
