<svg width="10" height="10" viewBox="0 0 10 10" fill="none" xmlns="http://www.w3.org/2000/svg">
<path d="M9.146 4.13489L5.23975 0.228642C5.09325 0.0822398 4.89462 0 4.6875 0C4.48039 0 4.28176 0.0822398 4.13526 0.228642L0.229009 4.13489C0.156111 4.20725 0.0983245 4.29338 0.0590105 4.38827C0.0196966 4.48316 -0.000360672 4.58492 4.90893e-06 4.68763V9.37513C4.90893e-06 9.47873 0.04116 9.57808 0.114416 9.65134C0.187673 9.7246 0.28703 9.76575 0.39063 9.76575H3.51563C3.61923 9.76575 3.71859 9.7246 3.79184 9.65134C3.8651 9.57808 3.90625 9.47873 3.90625 9.37513V6.64075H5.46875V9.37513C5.46875 9.47873 5.50991 9.57808 5.58317 9.65134C5.65642 9.7246 5.75578 9.76575 5.85938 9.76575H8.98438C9.08798 9.76575 9.18734 9.7246 9.26059 9.65134C9.33385 9.57808 9.375 9.47873 9.375 9.37513V4.68763C9.37537 4.58492 9.35531 4.48316 9.316 4.38827C9.27669 4.29338 9.2189 4.20725 9.146 4.13489ZM8.59375 8.9845H6.25001V6.25013C6.25001 6.14653 6.20885 6.04717 6.13559 5.97391C6.06234 5.90066 5.96298 5.8595 5.85938 5.8595H3.51563C3.41203 5.8595 3.31267 5.90066 3.23942 5.97391C3.16616 6.04717 3.125 6.14653 3.125 6.25013V8.9845H0.781255V4.68763L4.6875 0.781376L8.59375 4.68763V8.9845Z" fill="#1E1F24"/>
</svg>
