<svg width="19" height="19" viewBox="0 0 19 19" fill="none" xmlns="http://www.w3.org/2000/svg">
<path d="M9.375 5.25C8.55915 5.25 7.76163 5.49193 7.08327 5.94519C6.40492 6.39845 5.87621 7.04269 5.564 7.79643C5.25179 8.55018 5.1701 9.37958 5.32926 10.1797C5.48843 10.9799 5.88129 11.7149 6.45818 12.2918C7.03508 12.8687 7.77008 13.2616 8.57025 13.4207C9.37042 13.5799 10.1998 13.4982 10.9536 13.186C11.7073 12.8738 12.3516 12.3451 12.8048 11.6667C13.2581 10.9884 13.5 10.1908 13.5 9.375C13.4988 8.28136 13.0638 7.23287 12.2904 6.45955C11.5171 5.68624 10.4686 5.25124 9.375 5.25ZM9.375 12.75C8.70749 12.75 8.05497 12.5521 7.49995 12.1812C6.94493 11.8104 6.51235 11.2833 6.25691 10.6666C6.00146 10.0499 5.93462 9.37126 6.06485 8.71657C6.19507 8.06188 6.51651 7.46052 6.98851 6.98851C7.46052 6.51651 8.06188 6.19507 8.71657 6.06485C9.37126 5.93462 10.0499 6.00146 10.6666 6.25691C11.2833 6.51235 11.8104 6.94493 12.1812 7.49995C12.5521 8.05497 12.75 8.70749 12.75 9.375C12.75 10.2701 12.3944 11.1285 11.7615 11.7615C11.1285 12.3944 10.2701 12.75 9.375 12.75ZM13.875 0H4.875C3.58253 0.00148874 2.34342 0.515581 1.4295 1.4295C0.515581 2.34342 0.00148874 3.58253 0 4.875V13.875C0.00148874 15.1675 0.515581 16.4066 1.4295 17.3205C2.34342 18.2344 3.58253 18.7485 4.875 18.75H13.875C15.1675 18.7485 16.4066 18.2344 17.3205 17.3205C18.2344 16.4066 18.7485 15.1675 18.75 13.875V4.875C18.7485 3.58253 18.2344 2.34342 17.3205 1.4295C16.4066 0.515581 15.1675 0.00148874 13.875 0ZM18 13.875C17.9988 14.9686 17.5638 16.0171 16.7904 16.7904C16.0171 17.5638 14.9686 17.9988 13.875 18H4.875C3.78136 17.9988 2.73287 17.5638 1.95955 16.7904C1.18624 16.0171 0.751241 14.9686 0.75 13.875V4.875C0.751241 3.78136 1.18624 2.73287 1.95955 1.95955C2.73287 1.18624 3.78136 0.751241 4.875 0.75H13.875C14.9686 0.751241 16.0171 1.18624 16.7904 1.95955C17.5638 2.73287 17.9988 3.78136 18 4.875V13.875ZM15 4.5C15 4.64834 14.956 4.79334 14.8736 4.91668C14.7912 5.04001 14.6741 5.13614 14.537 5.19291C14.4 5.24968 14.2492 5.26453 14.1037 5.23559C13.9582 5.20665 13.8246 5.13522 13.7197 5.03033C13.6148 4.92544 13.5433 4.7918 13.5144 4.64632C13.4855 4.50083 13.5003 4.35003 13.5571 4.21299C13.6139 4.07594 13.71 3.95881 13.8333 3.8764C13.9567 3.79399 14.1017 3.75 14.25 3.75C14.4489 3.75 14.6397 3.82902 14.7803 3.96967C14.921 4.11032 15 4.30109 15 4.5Z" fill="#1E1F24"/>
</svg>
