<svg width="32" height="32" viewBox="0 0 32 32" fill="none" xmlns="http://www.w3.org/2000/svg">
<rect x="0.5" y="0.5" width="31" height="31" rx="4.83333" stroke="white" stroke-opacity="0.2"/>
<path d="M16.002 8C19.1976 8 20.7954 8.00022 21.9463 8.76172C22.4602 9.10175 22.9002 9.54178 23.2402 10.0557C24.0017 11.2065 24.002 12.8043 24.002 16C24.002 19.1957 24.0017 20.7935 23.2402 21.9443C22.9002 22.4582 22.4602 22.8983 21.9463 23.2383C20.7954 23.9998 19.1976 24 16.002 24C12.8063 24 11.2085 23.9998 10.0576 23.2383C9.54374 22.8983 9.1037 22.4582 8.76367 21.9443C8.00217 20.7935 8.00195 19.1957 8.00195 16C8.00195 12.8043 8.00217 11.2065 8.76367 10.0557C9.1037 9.54178 9.54374 9.10175 10.0576 8.76172C11.2085 8.00022 12.8063 8 16.002 8ZM16.0029 11.8594C13.7156 11.8594 11.8614 13.7137 11.8613 16.001C11.8613 18.2883 13.7156 20.1425 16.0029 20.1426C18.2903 20.1426 20.1445 18.2884 20.1445 16.001C20.1445 13.7136 18.2903 11.8594 16.0029 11.8594ZM16.0029 13.2607C17.5164 13.2607 18.7431 14.4875 18.7432 16.001C18.7432 17.5145 17.5164 18.7412 16.0029 18.7412C14.4895 18.7412 13.2627 17.5145 13.2627 16.001C13.2627 14.4875 14.4895 13.2608 16.0029 13.2607ZM20.3096 10.6777C19.7721 10.6777 19.3359 11.1139 19.3359 11.6514C19.3362 12.1886 19.7723 12.624 20.3096 12.624C20.8467 12.6238 21.282 12.1885 21.2822 11.6514C21.2822 11.114 20.8468 10.678 20.3096 10.6777Z" fill="white"/>
</svg>
