<svg width="64" height="64" viewBox="0 0 64 64" fill="none" xmlns="http://www.w3.org/2000/svg">
<g clip-path="url(#clip0_4529_3538)">
<path d="M32 0C14.3547 0 0 14.3547 0 32C0 49.6453 14.3547 64 32 64C49.6453 64 64 49.6453 64 32C64 14.3547 49.6453 0 32 0ZM32 56C18.7653 56 8 45.232 8 32C8 18.768 18.7653 8 32 8C45.2347 8 56 18.768 56 32C56 45.232 45.2347 56 32 56ZM42.4373 34.6693L28.5653 42.2693C28.0992 42.5313 27.5726 42.6668 27.0379 42.6623C26.5032 42.6577 25.9791 42.5133 25.5175 42.2434C25.0559 41.9735 24.6729 41.5875 24.4067 41.1238C24.1405 40.66 24.0003 40.1347 24 39.6V24.4027C24 22.0587 26.5227 20.584 28.5653 21.7333L42.4373 29.3333C42.9113 29.5995 43.3059 29.987 43.5805 30.4562C43.8551 30.9253 43.9999 31.4591 43.9999 32.0027C43.9999 32.5463 43.8551 33.0801 43.5805 33.5492C43.3059 34.0183 42.9113 34.4032 42.4373 34.6693Z" fill="white"/>
</g>
<defs>
<clipPath id="clip0_4529_3538">
<rect width="64" height="64" fill="white"/>
</clipPath>
</defs>
</svg>
