<svg width="48" height="48" viewBox="0 0 48 48" fill="none" xmlns="http://www.w3.org/2000/svg">
<path d="M23.9965 30.8305C23.2038 30.8305 22.5307 30.5473 21.977 29.981C21.423 29.4147 21.146 28.7352 21.146 27.9425C21.146 27.1372 21.4242 26.4557 21.9805 25.898C22.5365 25.3403 23.2108 25.0615 24.0035 25.0615C24.8295 25.0615 25.5213 25.3415 26.079 25.9015C26.6367 26.4615 26.9155 27.1442 26.9155 27.9495C26.9155 28.7422 26.6355 29.4205 26.0755 29.9845C25.5155 30.5485 24.8225 30.8305 23.9965 30.8305ZM16.258 14.923H31.804L35.75 7H12.281L16.258 14.923ZM16.8885 41H31.1615C33.8938 41 36.2218 40.0372 38.1455 38.1115C40.0688 36.1858 41.0305 33.8503 41.0305 31.105C41.0102 29.9327 40.8077 28.81 40.423 27.737C40.0383 26.6637 39.4653 25.6757 38.704 24.773L32.4115 17.1925H15.6195L9.296 24.773C8.568 25.6757 8.00333 26.6637 7.602 27.737C7.20067 28.81 7 29.9327 7 31.105C7 33.8503 7.96283 36.1858 9.8885 38.1115C11.8142 40.0372 14.1475 41 16.8885 41Z" fill="#0778D4"/>
</svg>
