<svg width="32" height="32" viewBox="0 0 32 32" fill="none" xmlns="http://www.w3.org/2000/svg">
<g clip-path="url(#clip0_2354_1459)">
<path d="M32.0014 8.00033V21.4683C32.0052 22.8697 31.7311 24.2579 31.1949 25.5526C30.6586 26.8473 29.8709 28.0228 28.8774 29.011L26.2774 31.611C26.1538 31.7352 26.007 31.8338 25.8452 31.9011C25.6834 31.9684 25.5099 32.003 25.3347 32.003C25.1595 32.003 24.986 31.9684 24.8242 31.9011C24.6625 31.8338 24.5156 31.7352 24.392 31.611C24.2681 31.4873 24.1698 31.3403 24.1027 31.1786C24.0356 31.0168 24.0011 30.8434 24.0011 30.6683C24.0011 30.4932 24.0356 30.3198 24.1027 30.1581C24.1698 29.9963 24.2681 29.8494 24.392 29.7257L26.992 27.1257C27.7372 26.3844 28.3279 25.5027 28.73 24.5317C29.1322 23.5606 29.3377 22.5194 29.3347 21.4683V8.00033C29.3347 7.26566 28.736 6.667 28.0014 6.667C27.2667 6.667 26.668 7.26566 26.668 8.00033L26.6507 18.7563C26.6356 19.6616 26.312 20.5346 25.7334 21.231L22.296 24.8097C22.1749 24.9362 22.0299 25.0376 21.8695 25.108C21.7091 25.1784 21.5363 25.2165 21.3611 25.2199C21.186 25.2234 21.0118 25.1922 20.8487 25.1282C20.6856 25.0642 20.5368 24.9687 20.4107 24.847C20.2845 24.7257 20.1833 24.5806 20.1131 24.4202C20.0429 24.2598 20.005 24.0871 20.0016 23.9121C19.9981 23.737 20.0291 23.563 20.0929 23.3999C20.1567 23.2368 20.252 23.0879 20.3734 22.9617L23.7507 19.4497C23.9237 19.2274 24.0125 18.9511 24.0014 18.6697V18.6083C23.9911 18.3567 23.9095 18.1131 23.766 17.9061C23.6225 17.6991 23.4231 17.5371 23.1911 17.4391C22.9591 17.3411 22.7039 17.3112 22.4555 17.3527C22.2071 17.3942 21.9756 17.5055 21.788 17.6737L17.5707 21.555C18.2876 22.8997 18.6647 24.3992 18.6694 25.923V30.6683C18.6694 31.022 18.5289 31.3611 18.2789 31.6111C18.0288 31.8612 17.6897 32.0017 17.336 32.0017C16.9824 32.0017 16.6433 31.8612 16.3932 31.6111C16.1432 31.3611 16.0027 31.022 16.0027 30.6683V25.923C16.0018 25.0008 15.8099 24.0888 15.4394 23.2444C15.0688 22.4 14.5274 21.6414 13.8494 21.0163L10.204 17.6617C9.94103 17.4316 9.59789 17.3147 9.24914 17.3361C8.90039 17.3576 8.57419 17.5158 8.34137 17.7763C8.1296 18.0152 8.01036 18.322 8.00522 18.6411C8.00008 18.9603 8.1094 19.2708 8.31337 19.5163L11.74 23.0777C11.8614 23.2039 11.9567 23.3528 12.0205 23.5159C12.0843 23.679 12.1153 23.853 12.1118 24.0281C12.1084 24.2031 12.0705 24.3758 12.0003 24.5362C11.9301 24.6966 11.829 24.8417 11.7027 24.963C11.5765 25.0843 11.4276 25.1796 11.2645 25.2434C11.1014 25.3072 10.9274 25.3383 10.7523 25.3348C10.5772 25.3313 10.4046 25.2934 10.2442 25.2232C10.0837 25.153 9.93871 25.0519 9.81737 24.9257L6.32937 21.2977C5.7438 20.6028 5.40483 19.7335 5.36537 18.8257C5.35871 18.7723 5.33337 8.00166 5.33337 8.00166C5.33337 7.267 4.73471 6.66833 4.00004 6.66833C3.26537 6.66833 2.66671 7.267 2.66671 8.00166V21.4697C2.66671 23.607 3.49871 25.615 5.00937 27.127L7.60937 29.727C7.73317 29.8508 7.83136 29.9978 7.89836 30.1595C7.96536 30.3212 7.99984 30.4946 7.99984 30.6697C7.99984 30.8447 7.96536 31.0181 7.89836 31.1798C7.83136 31.3416 7.73317 31.4885 7.60937 31.6123C7.48558 31.7361 7.33862 31.8343 7.17687 31.9013C7.01513 31.9683 6.84178 32.0028 6.66671 32.0028C6.49164 32.0028 6.31828 31.9683 6.15654 31.9013C5.9948 31.8343 5.84783 31.7361 5.72404 31.6123L3.12404 29.0123C2.13048 28.0241 1.34278 26.8486 0.806548 25.5539C0.270314 24.2592 -0.00381091 22.871 4.00167e-05 21.4697V8.00033C4.00167e-05 5.795 1.79471 4.00033 4.00004 4.00033C6.20537 4.00033 8.00004 5.795 8.00004 8.00033V14.915C8.67386 14.6732 9.40037 14.6172 10.1033 14.7531C10.8062 14.8889 11.4595 15.2115 11.9947 15.687L15.6534 19.0537C15.7694 19.1603 15.872 19.2777 15.9827 19.3897L19.9934 15.699C20.529 15.2202 21.184 14.8947 21.8891 14.757C22.5943 14.6192 23.3236 14.6743 24 14.9163V8.00166C24 5.79633 25.7947 4.00166 28 4.00166C30.2054 4.00166 32 5.79633 32 8.00166L32.0014 8.00033ZM9.33471 4.26699C9.33471 1.91366 11.1294 0.000327873 13.3347 0.000327873C14.3774 0.000327873 15.304 0.360328 16.0014 0.969661C16.7425 0.332522 17.6908 -0.0121612 18.668 0.000327873C20.8734 0.000327873 22.668 1.91499 22.668 4.26699C22.668 6.939 19.9454 9.68566 17.6627 11.5177C17.1814 11.9043 16.592 12.0977 16.0014 12.0977C15.4107 12.0977 14.8214 11.9043 14.3387 11.5163C12.056 9.68433 9.33471 6.93766 9.33471 4.26566V4.26699ZM12.0014 4.26699C12.0014 5.47233 13.5374 7.455 16.0094 9.439C18.4654 7.455 20.0014 5.47233 20.0014 4.26699C20.0014 3.38433 19.4027 2.66699 18.668 2.66699C18.0534 2.66699 17.3347 3.01633 17.3347 4.00033C17.3347 4.35395 17.1942 4.69309 16.9442 4.94314C16.6941 5.19319 16.355 5.33366 16.0014 5.33366C15.6478 5.33366 15.3086 5.19319 15.0586 4.94314C14.8085 4.69309 14.668 4.35395 14.668 4.00033C14.668 3.01633 13.9494 2.66699 13.3347 2.66699C12.6 2.66699 12.0014 3.38566 12.0014 4.26699Z" fill="#CF2629"/>
</g>
<defs>
<clipPath id="clip0_2354_1459">
<rect width="32" height="32" fill="white"/>
</clipPath>
</defs>
</svg>
