<svg width="21" height="21" viewBox="0 0 21 21" fill="none" xmlns="http://www.w3.org/2000/svg">
<g clip-path="url(#clip0_2177_1422)">
<path d="M21.0009 5.25022V14.0886C21.0034 15.0082 20.8235 15.9192 20.4716 16.7689C20.1197 17.6185 19.6028 18.3899 18.9508 19.0385L17.2445 20.7447C17.1635 20.8263 17.0671 20.891 16.9609 20.9351C16.8547 20.9793 16.7409 21.002 16.6259 21.002C16.5109 21.002 16.3971 20.9793 16.2909 20.9351C16.1847 20.891 16.0883 20.8263 16.0073 20.7447C15.9259 20.6635 15.8614 20.5671 15.8174 20.4609C15.7734 20.3548 15.7507 20.241 15.7507 20.1261C15.7507 20.0112 15.7734 19.8974 15.8174 19.7912C15.8614 19.6851 15.9259 19.5887 16.0073 19.5075L17.7135 17.8012C18.2025 17.3148 18.5902 16.7362 18.8541 16.0989C19.118 15.4616 19.2529 14.7783 19.2509 14.0886V5.25022C19.2509 4.76809 18.858 4.37522 18.3759 4.37522C17.8938 4.37522 17.5009 4.76809 17.5009 5.25022L17.4895 12.3088C17.4796 12.9029 17.2672 13.4758 16.8875 13.9328L14.6318 16.2813C14.5523 16.3644 14.4571 16.4309 14.3519 16.4771C14.2466 16.5233 14.1332 16.5483 14.0182 16.5506C13.9033 16.5529 13.789 16.5324 13.682 16.4904C13.5749 16.4484 13.4773 16.3857 13.3945 16.3058C13.3117 16.2262 13.2453 16.131 13.1992 16.0258C13.1532 15.9205 13.1283 15.8072 13.126 15.6923C13.1237 15.5774 13.1441 15.4632 13.186 15.3562C13.2279 15.2492 13.2904 15.1514 13.37 15.0686L15.5864 12.7638C15.6999 12.618 15.7582 12.4367 15.7509 12.252V12.2117C15.7442 12.0466 15.6906 11.8867 15.5964 11.7509C15.5023 11.615 15.3714 11.5087 15.2192 11.4444C15.0669 11.3801 14.8995 11.3604 14.7364 11.3877C14.5734 11.415 14.4215 11.488 14.2984 11.5983L11.5308 14.1455C12.0012 15.0279 12.2487 16.012 12.2518 17.012V20.1261C12.2518 20.3582 12.1596 20.5807 11.9955 20.7448C11.8314 20.9089 11.6088 21.0011 11.3768 21.0011C11.1447 21.0011 10.9222 20.9089 10.7581 20.7448C10.594 20.5807 10.5018 20.3582 10.5018 20.1261V17.012C10.5012 16.4068 10.3753 15.8083 10.1321 15.2541C9.88888 14.7 9.53362 14.2021 9.08865 13.792L6.6964 11.5905C6.5238 11.4395 6.29861 11.3627 6.06975 11.3768C5.84088 11.3909 5.62681 11.4947 5.47403 11.6657C5.33505 11.8225 5.2568 12.0238 5.25343 12.2333C5.25006 12.4427 5.32179 12.6465 5.45565 12.8076L7.7044 15.1447C7.78403 15.2276 7.84656 15.3253 7.88843 15.4323C7.93029 15.5393 7.95067 15.6535 7.94839 15.7684C7.94612 15.8833 7.92124 15.9966 7.87517 16.1019C7.8291 16.2072 7.76275 16.3023 7.6799 16.382C7.59705 16.4616 7.49933 16.5241 7.39232 16.566C7.2853 16.6079 7.17109 16.6282 7.0562 16.626C6.94131 16.6237 6.828 16.5988 6.72272 16.5527C6.61745 16.5067 6.52228 16.4403 6.44265 16.3575L4.15365 13.9766C3.76937 13.5206 3.54692 12.9501 3.52103 12.3543C3.51665 12.3193 3.50003 5.25109 3.50003 5.25109C3.50003 4.76897 3.10715 4.37609 2.62503 4.37609C2.1429 4.37609 1.75003 4.76897 1.75003 5.25109V14.0895C1.75003 15.4921 2.29603 16.8098 3.2874 17.8021L4.99365 19.5083C5.07489 19.5896 5.13933 19.686 5.1833 19.7922C5.22727 19.8983 5.24989 20.0121 5.24989 20.127C5.24989 20.2419 5.22727 20.3556 5.1833 20.4618C5.13933 20.5679 5.07489 20.6644 4.99365 20.7456C4.91241 20.8268 4.81597 20.8913 4.70982 20.9352C4.60368 20.9792 4.48992 21.0018 4.37503 21.0018C4.26014 21.0018 4.14637 20.9792 4.04023 20.9352C3.93409 20.8913 3.83764 20.8268 3.7564 20.7456L2.05015 19.0393C1.39813 18.3908 0.881201 17.6194 0.529297 16.7697C0.177393 15.9201 -0.00250091 15.0091 2.6261e-05 14.0895V5.25022C2.6261e-05 3.80297 1.17778 2.62522 2.62503 2.62522C4.07228 2.62522 5.25003 3.80297 5.25003 5.25022V9.78797C5.69222 9.62925 6.16899 9.59254 6.63027 9.68169C7.09155 9.77083 7.52031 9.98255 7.87153 10.2946L10.2725 12.504C10.3487 12.574 10.416 12.651 10.4887 12.7245L13.1207 10.3025C13.4722 9.98823 13.902 9.77466 14.3647 9.68426C14.8275 9.59387 15.3061 9.63 15.75 9.78884V5.25109C15.75 3.80384 16.9278 2.62609 18.375 2.62609C19.8223 2.62609 21 3.80384 21 5.25109L21.0009 5.25022ZM6.1259 2.80022C6.1259 1.25584 7.30365 0.000215167 8.7509 0.000215167C9.43515 0.000215167 10.0433 0.236465 10.5009 0.63634C10.9873 0.218218 11.6096 -0.00798082 12.2509 0.000215167C13.6982 0.000215167 14.8759 1.25672 14.8759 2.80022C14.8759 4.55372 13.0892 6.35622 11.5912 7.55847C11.2753 7.81222 10.8885 7.93909 10.5009 7.93909C10.1133 7.93909 9.72653 7.81222 9.40978 7.55759C7.91178 6.35534 6.1259 4.55284 6.1259 2.79934V2.80022ZM7.8759 2.80022C7.8759 3.59122 8.8839 4.89234 10.5062 6.19434C12.1179 4.89234 13.1259 3.59122 13.1259 2.80022C13.1259 2.22097 12.733 1.75022 12.2509 1.75022C11.8475 1.75022 11.3759 1.97947 11.3759 2.62522C11.3759 2.85728 11.2837 3.07984 11.1196 3.24393C10.9555 3.40803 10.733 3.50022 10.5009 3.50022C10.2688 3.50022 10.0463 3.40803 9.88218 3.24393C9.71809 3.07984 9.6259 2.85728 9.6259 2.62522C9.6259 1.97947 9.15428 1.75022 8.7509 1.75022C8.26878 1.75022 7.8759 2.22184 7.8759 2.80022Z" fill="#C9AF03"/>
</g>
<defs>
<clipPath id="clip0_2177_1422">
<rect width="21" height="21" fill="white"/>
</clipPath>
</defs>
</svg>
