<svg width="42" height="42" viewBox="0 0 42 42" fill="none" xmlns="http://www.w3.org/2000/svg">
<path d="M41.1083 12.8207L35.8471 17.2607L37.4521 23.8963C37.5685 24.3767 37.54 24.8808 37.3701 25.345C37.2003 25.8092 36.8967 26.2127 36.4977 26.5044C36.094 26.8011 35.6115 26.9717 35.111 26.9947C34.6106 27.0178 34.1145 26.8922 33.6852 26.6338L27.7508 23.0619L21.8165 26.6357C21.3874 26.8948 20.8912 27.0208 20.3906 26.9977C19.8899 26.9747 19.4074 26.8037 19.004 26.5063C18.6043 26.2151 18.3 25.8118 18.1298 25.3475C17.9595 24.8832 17.931 24.3788 18.0477 23.8982L19.6527 17.2626L14.3933 12.8207C14.0125 12.4988 13.7361 12.0707 13.5995 11.591C13.4629 11.1114 13.4722 10.6019 13.6263 10.1276C13.7804 9.65329 14.0722 9.23561 14.4646 8.92782C14.857 8.62004 15.3322 8.43609 15.8296 8.39945L22.7558 7.85195L25.4202 1.5407C25.6148 1.08366 25.9395 0.69393 26.3539 0.419992C26.7683 0.146054 27.2541 0 27.7508 0C28.2476 0 28.7334 0.146054 29.1478 0.419992C29.5621 0.69393 29.8868 1.08366 30.0815 1.5407L32.7458 7.85195L39.6721 8.39945C40.1695 8.43609 40.6446 8.62004 41.0371 8.92782C41.4295 9.23561 41.7213 9.65329 41.8754 10.1276C42.0295 10.6019 42.0388 11.1114 41.9022 11.591C41.7656 12.0707 41.4892 12.4988 41.1083 12.8207ZM13.5215 17.9788C13.3821 17.8394 13.2167 17.7287 13.0346 17.6532C12.8525 17.5777 12.6573 17.5389 12.4602 17.5389C12.2631 17.5389 12.0679 17.5777 11.8858 17.6532C11.7037 17.7287 11.5383 17.8394 11.399 17.9788L0.439584 28.9382C0.158123 29.2197 0 29.6014 0 29.9994C0 30.3975 0.158123 30.7792 0.439584 31.0607C0.721045 31.3422 1.10279 31.5003 1.50083 31.5003C1.89888 31.5003 2.28062 31.3422 2.56208 31.0607L13.5215 20.1013C13.6609 19.962 13.7716 19.7966 13.847 19.6145C13.9225 19.4324 13.9614 19.2372 13.9614 19.0401C13.9614 18.843 13.9225 18.6478 13.847 18.4657C13.7716 18.2836 13.6609 18.1181 13.5215 17.9788ZM13.4277 29.4519L3.43958 39.4382C3.30022 39.5776 3.18967 39.743 3.11424 39.9251C3.03882 40.1072 3 40.3024 3 40.4994C3 40.6965 3.03882 40.8917 3.11424 41.0738C3.18967 41.2559 3.30022 41.4213 3.43958 41.5607C3.72105 41.8422 4.10279 42.0003 4.50083 42.0003C4.69793 42.0003 4.89309 41.9615 5.07518 41.886C5.25727 41.8106 5.42272 41.7001 5.56208 41.5607L15.5483 31.5726C15.8178 31.289 15.9658 30.9114 15.9607 30.5202C15.9557 30.1291 15.7981 29.7554 15.5215 29.4788C15.2449 29.2022 14.8712 29.0445 14.4801 29.0395C14.0889 29.0345 13.7113 29.1825 13.4277 29.4519ZM27.1152 29.2644L16.9358 39.4419C16.7965 39.5813 16.6859 39.7468 16.6105 39.9289C16.5351 40.1109 16.4963 40.3061 16.4963 40.5032C16.4963 40.7003 16.5351 40.8955 16.6105 41.0775C16.6859 41.2596 16.7965 41.4251 16.9358 41.5644C17.2173 41.8459 17.599 42.004 17.9971 42.004C18.1942 42.004 18.3893 41.9652 18.5714 41.8898C18.7535 41.8144 18.919 41.7038 19.0583 41.5644L29.2358 31.3869C29.5173 31.1057 29.6755 30.7242 29.6757 30.3264C29.6759 29.9285 29.518 29.5468 29.2368 29.2654C28.9556 28.9839 28.5741 28.8257 28.1762 28.8255C27.7783 28.8254 27.3967 28.9832 27.1152 29.2644Z" fill="#0778D4"/>
</svg>
