<svg width="19" height="20" viewBox="0 0 19 20" fill="none" xmlns="http://www.w3.org/2000/svg">
<path d="M18.375 5.25C17.0825 5.24851 15.8434 4.73442 14.9295 3.8205C14.0156 2.90658 13.5015 1.66747 13.5 0.375C13.5 0.275544 13.4605 0.180161 13.3902 0.109835C13.3198 0.0395089 13.2245 0 13.125 0H9.375C9.27554 0 9.18016 0.0395089 9.10983 0.109835C9.03951 0.180161 9 0.275544 9 0.375V12.75C8.99995 13.1527 8.89184 13.5479 8.68694 13.8946C8.48205 14.2412 8.18789 14.5265 7.83515 14.7207C7.4824 14.9149 7.08401 15.0109 6.68153 14.9987C6.27904 14.9864 5.88723 14.8664 5.54695 14.6511C5.20668 14.4358 4.93042 14.1331 4.74699 13.7746C4.56357 13.4162 4.4797 13.015 4.50415 12.6131C4.5286 12.2112 4.66045 11.8232 4.88597 11.4896C5.11148 11.156 5.42239 10.889 5.78625 10.7166C5.85035 10.686 5.90447 10.6379 5.94231 10.5779C5.98015 10.5178 6.00015 10.4482 6 10.3772V6.375C6.00002 6.32018 5.98803 6.26603 5.96486 6.21635C5.9417 6.16667 5.90792 6.12267 5.86591 6.08746C5.8239 6.05224 5.77468 6.02667 5.72172 6.01253C5.66876 5.99839 5.61335 5.99603 5.55938 6.00562C2.38969 6.57 0 9.46875 0 12.75C0 14.5402 0.711159 16.2571 1.97703 17.523C3.2429 18.7888 4.95979 19.5 6.75 19.5C8.54021 19.5 10.2571 18.7888 11.523 17.523C12.7888 16.2571 13.5 14.5402 13.5 12.75V8.385C14.9676 9.28177 16.6551 9.75426 18.375 9.75C18.4745 9.75 18.5698 9.71049 18.6402 9.64017C18.7105 9.56984 18.75 9.47446 18.75 9.375V5.625C18.75 5.52554 18.7105 5.43016 18.6402 5.35983C18.5698 5.28951 18.4745 5.25 18.375 5.25ZM18 8.9925C16.3238 8.92336 14.7049 8.36329 13.3444 7.38188C13.2883 7.34141 13.2221 7.31725 13.1531 7.31206C13.0841 7.30688 13.015 7.32088 12.9535 7.35252C12.892 7.38415 12.8404 7.43218 12.8045 7.4913C12.7686 7.55042 12.7497 7.61832 12.75 7.6875V12.75C12.75 14.3413 12.1179 15.8674 10.9926 16.9926C9.86742 18.1179 8.3413 18.75 6.75 18.75C5.1587 18.75 3.63258 18.1179 2.50736 16.9926C1.38214 15.8674 0.75 14.3413 0.75 12.75C0.75 9.9825 2.655 7.51969 5.25 6.84375V10.1541C4.79386 10.4174 4.4151 10.7962 4.15179 11.2524C3.88848 11.7085 3.74991 12.226 3.75 12.7527C3.75009 13.2794 3.88885 13.7968 4.15233 14.2528C4.4158 14.7089 4.7947 15.0876 5.25093 15.3507C5.70716 15.6139 6.22464 15.7524 6.75134 15.7521C7.27804 15.7519 7.79539 15.613 8.25139 15.3494C8.70739 15.0858 9.08595 14.7068 9.34901 14.2505C9.61208 13.7942 9.75038 13.2767 9.75 12.75V0.75H12.7622C12.8551 2.10855 13.4367 3.38751 14.3996 4.35039C15.3625 5.31327 16.6415 5.89493 18 5.98781V8.9925Z" fill="#1E1F24"/>
</svg>
