<svg width="17" height="16" viewBox="0 0 17 16" fill="none" xmlns="http://www.w3.org/2000/svg">
<path d="M16.1658 15.3146C16.1109 15.4097 16.032 15.4886 15.9369 15.5434C15.8419 15.5983 15.7341 15.6272 15.6244 15.6271H0.624359C0.514703 15.627 0.407007 15.5981 0.312084 15.5432C0.217161 15.4882 0.138353 15.4093 0.0835739 15.3143C0.0287946 15.2194 -2.81314e-05 15.1116 2.06029e-08 15.002C2.81726e-05 14.8923 0.0289061 14.7846 0.0837343 14.6896C1.27358 12.6326 3.10717 11.1576 5.24702 10.4584C4.18855 9.82826 3.36619 8.86812 2.90622 7.7254C2.44626 6.58268 2.37411 5.32056 2.70088 4.13287C3.02764 2.94518 3.73523 1.89759 4.715 1.15097C5.69477 0.404356 6.89254 0 8.12436 0C9.35618 0 10.5539 0.404356 11.5337 1.15097C12.5135 1.89759 13.2211 2.94518 13.5478 4.13287C13.8746 5.32056 13.8025 6.58268 13.3425 7.7254C12.8825 8.86812 12.0602 9.82826 11.0017 10.4584C13.1415 11.1576 14.9751 12.6326 16.165 14.6896C16.22 14.7846 16.249 14.8923 16.2491 15.002C16.2492 15.1117 16.2205 15.2195 16.1658 15.3146Z" fill="white"/>
</svg>
