<svg width="32" height="32" viewBox="0 0 32 32" fill="none" xmlns="http://www.w3.org/2000/svg">
<path d="M32 10.6667C32 12.0854 31.6587 13.6067 30.984 15.1894C30.9154 15.3505 30.8157 15.4964 30.6906 15.619C30.5656 15.7416 30.4176 15.8383 30.2551 15.9037C30.0927 15.969 29.919 16.0018 29.7439 16C29.5688 15.9982 29.3958 15.962 29.2347 15.8934C29.0736 15.8247 28.9276 15.725 28.805 15.6C28.6825 15.4749 28.5857 15.3269 28.5204 15.1645C28.455 15.0021 28.4223 14.8283 28.424 14.6532C28.4258 14.4782 28.462 14.3051 28.5307 14.144C29.0627 12.8934 29.3333 11.724 29.3333 10.6667C29.3333 7.05336 26.5853 4.00003 23.3333 4.00003C20.3533 4.00003 18.656 5.2067 17.512 6.2587L12.4133 10.9907C11.9427 11.4627 11.8307 12.256 12.196 12.764C12.3077 12.9236 12.4531 13.0568 12.6218 13.1542C12.7905 13.2516 12.9785 13.3108 13.1726 13.3277C13.3667 13.3446 13.5621 13.3188 13.7452 13.2521C13.9282 13.1853 14.0944 13.0793 14.232 12.9414L19.796 7.6147C20.0545 7.38758 20.3908 7.26909 20.7346 7.28397C21.0784 7.29885 21.4032 7.44594 21.6411 7.69455C21.879 7.94315 22.0117 8.27406 22.0115 8.61818C22.0113 8.9623 21.8782 9.29304 21.64 9.54136L19.9893 11.1214L26.3187 16.676C27.8013 17.9774 28.1667 20.1627 27.168 21.7587C26.8467 22.2747 26.4099 22.7091 25.8921 23.0275C25.3742 23.3459 24.7895 23.5396 24.184 23.5934C24.1822 24.2884 23.9874 24.9692 23.6213 25.56C23.2545 26.1487 22.7382 26.6296 22.125 26.9537C21.5118 27.2779 20.8237 27.4337 20.1307 27.4054C20.0592 27.9219 19.8797 28.4175 19.604 28.86C18.9893 29.8414 17.9987 30.7094 16.2813 30.7094C15.3336 30.71 14.4181 30.3648 13.7067 29.7387L9.568 26.0267C5.20133 22.08 0 16.2147 0 10.6667C0 5.52003 3.888 1.33336 8.66667 1.33336C9.768 1.33336 10.844 1.55736 11.8627 2.00003C12.0257 2.06802 12.1736 2.16773 12.2977 2.29336C12.4219 2.41898 12.5199 2.56803 12.5859 2.73184C12.652 2.89565 12.6849 3.07095 12.6826 3.24757C12.6804 3.42419 12.6431 3.5986 12.5729 3.76067C12.5026 3.92275 12.4009 4.06926 12.2736 4.19169C12.1463 4.31412 11.9959 4.41003 11.8312 4.47386C11.6665 4.53769 11.4908 4.56815 11.3142 4.56349C11.1377 4.55883 10.9638 4.51913 10.8027 4.4467C10.1285 4.15268 9.40084 4.00107 8.66533 4.00136C5.41333 4.00136 2.66533 7.0547 2.66533 10.668C2.66533 14.2334 5.74933 18.984 11.352 24.0467L15.4773 27.7454C15.74 27.976 16.104 28.0827 16.464 28.0307C16.6447 28.0045 16.8174 27.9385 16.9696 27.8375C17.1218 27.7366 17.2496 27.6031 17.344 27.4467C17.6507 26.9547 17.4987 26.224 16.996 25.784L12.72 21.7187C12.4644 21.475 12.3158 21.1399 12.3065 20.7869C12.2973 20.4338 12.4282 20.0915 12.6707 19.8347C13.1773 19.3014 14.02 19.2787 14.5547 19.7827L19.5173 24.468C19.6502 24.5772 19.8047 24.6569 19.9706 24.702C20.1366 24.747 20.3102 24.7563 20.48 24.7294C20.6606 24.7028 20.8332 24.6367 20.9853 24.5357C21.1374 24.4348 21.2654 24.3015 21.36 24.1454C21.6667 23.6534 21.5147 22.9227 21.012 22.4814L16.2653 18.184C16.0085 17.9462 15.8556 17.6169 15.8394 17.2672C15.8233 16.9175 15.9454 16.5755 16.1793 16.3151C16.4131 16.0546 16.74 15.8965 17.0894 15.875C17.4388 15.8535 17.7826 15.9702 18.0467 16.2L23.036 20.64C23.1725 20.7578 23.333 20.8445 23.5064 20.8939C23.6798 20.9433 23.8619 20.9543 24.04 20.9261C24.2181 20.8979 24.3879 20.8312 24.5376 20.7307C24.6873 20.6302 24.8132 20.4982 24.9067 20.344C25.2133 19.852 25.0613 19.1214 24.5587 18.68L18.0547 12.972L16.0947 14.848C15.6863 15.2531 15.195 15.5647 14.6544 15.7613C14.1139 15.9579 13.5371 16.0348 12.964 15.9867C12.3833 15.9388 11.8199 15.765 11.3131 15.4774C10.8064 15.1898 10.3683 14.7954 10.0293 14.3214C8.90267 12.756 9.13067 10.4987 10.56 9.06936L15.7 4.2987C17.0893 3.0227 19.3853 1.33203 23.3307 1.33203C28.1093 1.33203 31.9973 5.5187 31.9973 10.6654L32 10.6667Z" fill="#0778D4"/>
</svg>
