<svg width="42" height="42" viewBox="0 0 42 42" fill="none" xmlns="http://www.w3.org/2000/svg">
<path d="M14.9973 35.9953C14.9973 36.3931 14.8392 36.7746 14.5579 37.0559C14.2766 37.3372 13.8951 37.4953 13.4973 37.4953H4.49726C3.70758 37.4948 2.93193 37.2865 2.24822 36.8913C1.56452 36.4962 0.996834 35.9281 0.602201 35.2441C0.207568 34.5601 -0.000120231 33.7843 5.22168e-08 32.9946C0.000120335 32.2049 0.208045 31.4291 0.602886 30.7453L5.85289 21.689L3.26164 20.189C3.00196 20.0419 2.79208 19.8206 2.65885 19.5535C2.52562 19.2864 2.47511 18.9857 2.51376 18.6897C2.55242 18.3937 2.67849 18.116 2.87585 17.8921C3.0732 17.6682 3.33287 17.5083 3.62164 17.4328L9.76601 15.7884C9.95635 15.7374 10.1549 15.7243 10.3502 15.7501C10.5456 15.7758 10.734 15.8397 10.9046 15.9383C11.0753 16.0368 11.2248 16.1681 11.3448 16.3244C11.4647 16.4808 11.5526 16.6593 11.6035 16.8496L13.2516 22.994C13.3286 23.2807 13.3187 23.5837 13.2234 23.8647C13.128 24.1458 12.9515 24.3923 12.716 24.5729C12.4805 24.7536 12.1968 24.8603 11.9006 24.8797C11.6045 24.899 11.3092 24.83 11.0523 24.6815L8.44976 23.1815L3.20539 32.2453C3.07403 32.4728 3.00473 32.7308 3.00442 32.9935C3.0041 33.2562 3.07278 33.5144 3.20359 33.7422C3.33439 33.97 3.52274 34.1595 3.74977 34.2916C3.9768 34.4238 4.23456 34.494 4.49726 34.4953H13.4973C13.8951 34.4953 14.2766 34.6533 14.5579 34.9346C14.8392 35.2159 14.9973 35.5974 14.9973 35.9953ZM20.9973 2.99526C21.2609 2.99262 21.5204 3.06083 21.7486 3.19276C21.9769 3.32469 22.1655 3.51551 22.2948 3.74526L27.5448 12.8015L24.9535 14.3015C24.6987 14.4502 24.4934 14.6708 24.3633 14.9356C24.2332 15.2004 24.1841 15.4978 24.2221 15.7903C24.2601 16.0829 24.3836 16.3578 24.577 16.5806C24.7705 16.8034 25.0254 16.9641 25.3098 17.0428L31.456 18.6909C31.5827 18.7242 31.7131 18.7412 31.8441 18.7415C32.1741 18.7412 32.4948 18.6321 32.7565 18.4311C33.0182 18.2301 33.2063 17.9484 33.2916 17.6296L34.9398 11.4815C35.0164 11.1951 35.0064 10.8925 34.9111 10.6117C34.8158 10.331 34.6394 10.0848 34.4043 9.90426C34.1691 9.7237 33.8858 9.61687 33.59 9.59724C33.2942 9.57762 32.9992 9.64609 32.7423 9.79401L30.1379 11.294L24.8916 2.24526C24.4963 1.56246 23.9284 0.995596 23.2449 0.601518C22.5614 0.20744 21.7862 0 20.9973 0C20.2083 0 19.4332 0.20744 18.7496 0.601518C18.0661 0.995596 17.4982 1.56246 17.1029 2.24526L12.7604 9.74526C12.5738 10.0889 12.5288 10.4917 12.6348 10.868C12.7409 11.2444 12.9898 11.5644 13.3283 11.7599C13.6669 11.9555 14.0684 12.0111 14.4474 11.915C14.8264 11.8189 15.1529 11.5786 15.3573 11.2453L19.6998 3.74526C19.829 3.51551 20.0177 3.32469 20.2459 3.19276C20.4742 3.06083 20.7336 2.99262 20.9973 2.99526ZM41.3841 30.7453L37.0454 23.2453C36.8378 22.9188 36.5121 22.6851 36.1364 22.593C35.7606 22.501 35.3638 22.5577 35.0288 22.7513C34.6939 22.9449 34.4467 23.2605 34.3389 23.632C34.2311 24.0036 34.2711 24.4025 34.4504 24.7453L38.7891 32.2453C38.9205 32.4728 38.9898 32.7308 38.9901 32.9935C38.9904 33.2562 38.9217 33.5144 38.7909 33.7422C38.6601 33.97 38.4718 34.1595 38.2448 34.2916C38.0177 34.4238 37.76 34.494 37.4973 34.4953H26.9973V31.4953C26.9975 31.1984 26.9096 30.9082 26.7448 30.6613C26.58 30.4144 26.3457 30.222 26.0714 30.1083C25.7972 29.9947 25.4954 29.965 25.2043 30.023C24.9132 30.0809 24.6458 30.224 24.436 30.434L19.936 34.934C19.7965 35.0733 19.6859 35.2388 19.6104 35.4209C19.5349 35.6029 19.4961 35.7981 19.4961 35.9953C19.4961 36.1924 19.5349 36.3876 19.6104 36.5697C19.6859 36.7518 19.7965 36.9172 19.936 37.0565L24.436 41.5565C24.6458 41.7665 24.9132 41.9096 25.2043 41.9676C25.4954 42.0255 25.7972 41.9958 26.0714 41.8822C26.3457 41.7686 26.58 41.5761 26.7448 41.3292C26.9096 41.0823 26.9975 40.7921 26.9973 40.4953V37.4953H37.4973C38.2869 37.4948 39.0626 37.2865 39.7463 36.8913C40.43 36.4962 40.9977 35.9281 41.3923 35.2441C41.787 34.5601 41.9946 33.7843 41.9945 32.9946C41.9944 32.2049 41.7865 31.4291 41.3916 30.7453H41.3841Z" fill="#0778D4"/>
</svg>
