<svg width="21" height="16" viewBox="0 0 21 16" fill="none" xmlns="http://www.w3.org/2000/svg">
<path d="M13.3331 7.56283L8.83313 4.56283C8.77664 4.52514 8.71097 4.5035 8.64315 4.50022C8.57532 4.49693 8.50787 4.51212 8.44801 4.54417C8.38814 4.57622 8.3381 4.62393 8.30322 4.6822C8.26835 4.74047 8.24996 4.80711 8.25 4.87502V10.875C8.24992 10.9429 8.26828 11.0096 8.30312 11.0679C8.33796 11.1261 8.38797 11.1739 8.44781 11.206C8.50771 11.238 8.5752 11.2532 8.64306 11.2499C8.71093 11.2466 8.77662 11.2249 8.83313 11.1872L13.3331 8.18721C13.3846 8.15298 13.4267 8.10656 13.4559 8.0521C13.4851 7.99764 13.5004 7.93681 13.5004 7.87502C13.5004 7.81323 13.4851 7.7524 13.4559 7.69794C13.4267 7.64347 13.3846 7.59706 13.3331 7.56283ZM9 10.1747V5.57533L12.4491 7.87502L9 10.1747ZM19.7306 2.48721C19.6573 2.19911 19.5166 1.93258 19.32 1.70959C19.1234 1.4866 18.8766 1.31354 18.6 1.20471C15.4312 -0.0196685 10.3378 1.91127e-05 10.125 1.91127e-05C9.91219 1.91127e-05 4.81875 -0.0196685 1.65 1.20471C1.37348 1.31345 1.12676 1.48636 0.930185 1.70918C0.733609 1.932 0.592804 2.19835 0.519375 2.48627C0.28125 3.40033 0 5.07752 0 7.87502C0 10.6725 0.28125 12.3497 0.519375 13.2638C0.592804 13.5517 0.733609 13.818 0.930185 14.0409C1.12676 14.2637 1.37348 14.4366 1.65 14.5453C4.81875 15.7697 9.91219 15.75 10.125 15.75H10.1916C10.8375 15.75 15.5897 15.7097 18.6028 14.5453C18.8793 14.4366 19.1261 14.2637 19.3226 14.0409C19.5192 13.818 19.66 13.5517 19.7334 13.2638C19.9688 12.3488 20.25 10.6725 20.25 7.87502C20.25 5.07752 19.9688 3.40033 19.7306 2.48627V2.48721ZM19.005 13.081C18.9614 13.2538 18.8774 13.4137 18.7599 13.5477C18.6424 13.6817 18.4947 13.7859 18.3291 13.8516C15.2944 15.0178 10.1784 15 10.125 15C10.0716 15 4.95844 15.0178 1.92375 13.846C1.7581 13.7802 1.61043 13.6761 1.49291 13.5421C1.37539 13.4081 1.29139 13.2481 1.24781 13.0753C1.01906 12.2035 0.75 10.5938 0.75 7.87502C0.75 5.15627 1.01906 3.54658 1.245 2.67471C1.28857 2.5019 1.37258 2.34192 1.4901 2.20793C1.60762 2.07395 1.75528 1.96981 1.92094 1.90408C4.95563 0.732206 10.0716 0.750019 10.125 0.750019C10.1784 0.750019 15.2916 0.731269 18.3263 1.90408C18.4919 1.96981 18.6396 2.07395 18.7571 2.20793C18.8746 2.34192 18.9586 2.5019 19.0022 2.67471C19.2309 3.54658 19.5 5.15627 19.5 7.87502C19.5 10.5938 19.2309 12.2035 19.005 13.0753V13.081Z" fill="#1E1F24"/>
</svg>
