<svg width="32" height="32" viewBox="0 0 32 32" fill="none" xmlns="http://www.w3.org/2000/svg">
<rect x="0.5" y="0.5" width="31" height="31" rx="4.83333" stroke="white" stroke-opacity="0.2"/>
<path d="M16.3911 22.2044L12.7803 22.1369C11.6111 22.1134 10.4391 22.1603 9.29294 21.9167C7.54932 21.5527 7.4258 19.7679 7.29655 18.2708C7.11845 16.166 7.18739 14.0231 7.52349 11.9359C7.71323 10.7648 8.45992 10.066 9.61466 9.98991C13.5128 9.71393 17.4368 9.74664 21.3262 9.87539C21.737 9.88719 22.1506 9.95171 22.5556 10.0251C24.555 10.3833 24.6038 12.4059 24.7334 14.1085C24.8626 15.8287 24.8081 17.5577 24.561 19.2662C24.3628 20.6808 23.9836 21.867 22.3833 21.9816C20.3781 22.1313 18.419 22.2519 16.4083 22.2135C16.4084 22.2044 16.3968 22.2044 16.3911 22.2044ZM14.2683 18.6231C15.7793 17.7365 17.2615 16.8647 18.7639 15.984C17.25 15.0974 15.7707 14.2256 14.2683 13.345V18.6231Z" fill="white"/>
</svg>
