<svg width="32" height="32" viewBox="0 0 32 32" fill="none" xmlns="http://www.w3.org/2000/svg">
<g clip-path="url(#clip0_2143_2816)">
<path d="M32 16C32 16.3536 31.8595 16.6928 31.6095 16.9428C31.3594 17.1929 31.0203 17.3333 30.6667 17.3333H17.3333V30.6667C17.3333 31.0203 17.1929 31.3594 16.9428 31.6095C16.6928 31.8595 16.3536 32 16 32C15.6464 32 15.3072 31.8595 15.0572 31.6095C14.8071 31.3594 14.6667 31.0203 14.6667 30.6667V17.3333H1.33333C0.979711 17.3333 0.640573 17.1929 0.390524 16.9428C0.140476 16.6928 0 16.3536 0 16C0 15.6464 0.140476 15.3072 0.390524 15.0572C0.640573 14.8071 0.979711 14.6667 1.33333 14.6667H14.6667V1.33333C14.6667 0.979711 14.8071 0.640573 15.0572 0.390524C15.3072 0.140476 15.6464 0 16 0C16.3536 0 16.6928 0.140476 16.9428 0.390524C17.1929 0.640573 17.3333 0.979711 17.3333 1.33333V14.6667H30.6667C31.0203 14.6667 31.3594 14.8071 31.6095 15.0572C31.8595 15.3072 32 15.6464 32 16ZM30.6667 21.3333H22.6667C22.313 21.3333 21.9739 21.4738 21.7239 21.7239C21.4738 21.9739 21.3333 22.313 21.3333 22.6667C21.3333 23.0203 21.4738 23.3594 21.7239 23.6095C21.9739 23.8595 22.313 24 22.6667 24H30.6667C31.0203 24 31.3594 23.8595 31.6095 23.6095C31.8595 23.3594 32 23.0203 32 22.6667C32 22.313 31.8595 21.9739 31.6095 21.7239C31.3594 21.4738 31.0203 21.3333 30.6667 21.3333ZM30.6667 26.6667H22.6667C22.313 26.6667 21.9739 26.8071 21.7239 27.0572C21.4738 27.3072 21.3333 27.6464 21.3333 28C21.3333 28.3536 21.4738 28.6928 21.7239 28.9428C21.9739 29.1929 22.313 29.3333 22.6667 29.3333H30.6667C31.0203 29.3333 31.3594 29.1929 31.6095 28.9428C31.8595 28.6928 32 28.3536 32 28C32 27.6464 31.8595 27.3072 31.6095 27.0572C31.3594 26.8071 31.0203 26.6667 30.6667 26.6667ZM1.33333 8H9.33333C9.68696 8 10.0261 7.85952 10.2761 7.60948C10.5262 7.35943 10.6667 7.02029 10.6667 6.66667C10.6667 6.31305 10.5262 5.97391 10.2761 5.72386C10.0261 5.47381 9.68696 5.33333 9.33333 5.33333H1.33333C0.979711 5.33333 0.640573 5.47381 0.390524 5.72386C0.140476 5.97391 0 6.31305 0 6.66667C0 7.02029 0.140476 7.35943 0.390524 7.60948C0.640573 7.85952 0.979711 8 1.33333 8ZM22.6667 8H25.3333V10.6667C25.3333 11.0203 25.4738 11.3594 25.7239 11.6095C25.9739 11.8595 26.313 12 26.6667 12C27.0203 12 27.3594 11.8595 27.6095 11.6095C27.8595 11.3594 28 11.0203 28 10.6667V8H30.6667C31.0203 8 31.3594 7.85952 31.6095 7.60948C31.8595 7.35943 32 7.02029 32 6.66667C32 6.31305 31.8595 5.97391 31.6095 5.72386C31.3594 5.47381 31.0203 5.33333 30.6667 5.33333H28V2.66667C28 2.31304 27.8595 1.97391 27.6095 1.72386C27.3594 1.47381 27.0203 1.33333 26.6667 1.33333C26.313 1.33333 25.9739 1.47381 25.7239 1.72386C25.4738 1.97391 25.3333 2.31304 25.3333 2.66667V5.33333H22.6667C22.313 5.33333 21.9739 5.47381 21.7239 5.72386C21.4738 5.97391 21.3333 6.31305 21.3333 6.66667C21.3333 7.02029 21.4738 7.35943 21.7239 7.60948C21.9739 7.85952 22.313 8 22.6667 8ZM10.276 21.724C10.1523 21.6001 10.0053 21.5018 9.84359 21.4347C9.68184 21.3676 9.50844 21.3331 9.33333 21.3331C9.15822 21.3331 8.98483 21.3676 8.82308 21.4347C8.66132 21.5018 8.51438 21.6001 8.39067 21.724L6 24.1147L3.60933 21.724C3.35932 21.474 3.02024 21.3335 2.66667 21.3335C2.3131 21.3335 1.97401 21.474 1.724 21.724C1.47399 21.974 1.33353 22.3131 1.33353 22.6667C1.33353 23.0202 1.47399 23.3593 1.724 23.6093L4.11467 26L1.724 28.3907C1.47399 28.6407 1.33353 28.9798 1.33353 29.3333C1.33353 29.6869 1.47399 30.026 1.724 30.276C1.97401 30.526 2.3131 30.6665 2.66667 30.6665C3.02024 30.6665 3.35932 30.526 3.60933 30.276L6 27.8853L8.39067 30.276C8.5142 30.4002 8.66109 30.4988 8.82286 30.5661C8.98464 30.6334 9.15812 30.668 9.33333 30.668C9.50854 30.668 9.68203 30.6334 9.8438 30.5661C10.0056 30.4988 10.1525 30.4002 10.276 30.276C10.3999 30.1523 10.4982 30.0053 10.5653 29.8436C10.6324 29.6818 10.6669 29.5084 10.6669 29.3333C10.6669 29.1582 10.6324 28.9848 10.5653 28.8231C10.4982 28.6613 10.3999 28.5144 10.276 28.3907L7.88533 26L10.276 23.6093C10.3999 23.4856 10.4982 23.3387 10.5653 23.1769C10.6324 23.0152 10.6669 22.8418 10.6669 22.6667C10.6669 22.4916 10.6324 22.3182 10.5653 22.1564C10.4982 21.9947 10.3999 21.8477 10.276 21.724Z" fill="#0778D4"/>
</g>
<defs>
<clipPath id="clip0_2143_2816">
<rect width="32" height="32" fill="white"/>
</clipPath>
</defs>
</svg>
