<svg width="188" height="68" viewBox="0 0 188 68" fill="none" xmlns="http://www.w3.org/2000/svg">
<path d="M11.4416 56.02C11.4416 56.6087 10.5615 56.4125 10.1703 56.4125C10.1703 56.1181 10.1703 55.6276 10.1703 55.6276C10.6593 55.6276 11.4416 55.4314 11.4416 56.02ZM12.1262 57.0011C12.1262 57.0011 12.713 56.6087 12.713 55.9219C12.713 55.137 12.1262 54.6465 11.1482 54.6465H8.60547V59.2576H10.0725V57.6879H10.9527C11.6372 57.786 11.246 58.3746 11.4416 59.2576C11.4416 59.2576 12.3218 59.2576 12.9086 59.2576C12.6152 59.0614 13.1042 57.6879 12.4196 57.2954C12.4196 57.0992 12.713 57.2954 12.1262 57.0011Z" fill="white"/>
<path d="M13.3984 54.5484H17.1148V55.5295H14.8654V56.4124H16.7236V57.3935H14.8654V58.2765H17.2126V59.1595H13.3984V54.5484Z" fill="white"/>
<path d="M17.8975 54.5484H19.3644V58.2765H21.4182V59.1595H17.8975V54.5484Z" fill="white"/>
<path d="M23.2756 54.5484H21.8086V59.1595H23.2756V54.5484Z" fill="white"/>
<path d="M24.2539 54.5484H27.8725V55.5295H25.6231V56.4124H27.4813V57.3935H25.6231V58.2765H28.0681V59.1595H24.2539V54.5484Z" fill="white"/>
<path d="M28.5576 54.5484H32.0784V55.5295H30.0246V56.5105H31.5894V57.4916H30.0246V59.1595H28.5576V54.5484Z" fill="white"/>
<path d="M34.5233 1.96217C34.1321 1.86406 33.5453 1.47163 33.6431 0.981086C33.7409 0.392434 34.0343 0 34.6211 0C35.2079 0 35.5013 0.588652 35.5013 0.588652V0.686761H35.4035C35.4035 0.686761 34.9145 0.294325 34.6211 0.392434C34.4255 0.490542 34.2299 0.68676 34.2299 0.981086C34.2299 1.37352 34.5233 1.56974 34.8167 1.56974C35.1101 1.56974 35.5013 1.27541 35.5013 1.27541H35.5991C35.5991 1.27541 35.5991 1.27541 35.5991 1.47163C35.5991 1.56974 35.3057 1.86406 34.9145 1.96217L36.5771 10.6938V17.8558H37.8485C37.8485 17.8558 37.8485 19.3274 36.5771 20.2104V25.9007H37.8485C37.8485 25.9007 37.8485 27.4704 36.5771 28.2553V41.9905C36.1859 40.3226 34.9145 38.1642 33.0563 36.3002V28.3534C31.6871 27.5685 31.8827 25.9007 31.8827 25.9007H33.1541V20.4066C31.7849 19.6217 31.9805 17.9539 31.9805 17.9539H33.2519V10.8901L34.5233 1.96217Z" fill="white"/>
<path d="M5.67199 1.96189C6.16099 1.86378 6.16099 1.76567 6.25879 1.56945C6.35659 1.47134 6.35659 1.27513 6.35659 1.27513H6.25879C6.25879 1.27513 5.96539 1.56945 5.5742 1.56945C5.2808 1.56945 4.9874 1.37324 4.9874 0.980801C4.9874 0.588367 5.2808 0.392149 5.4764 0.392149C5.76979 0.392149 5.96539 0.686476 5.96539 0.686476L6.16099 0.784583V0.686476C6.16099 0.686476 5.86759 0.0978241 5.2808 0.0978241C4.7918 0.0978241 4.40061 0.294041 4.30281 1.07891C4.20501 1.56945 4.694 1.96189 5.183 2.06L3.52041 10.7917V17.9536H2.24902C2.24902 17.9536 2.24902 19.4252 3.52041 20.3082V25.9985H2.24902C2.24902 25.9985 2.24902 27.5682 3.52041 28.3531V41.6959C4.20501 39.8318 5.183 38.3602 7.04118 36.398V28.4512C8.41037 27.6663 8.21477 25.9985 8.21477 25.9985H6.94339V20.5044C8.31257 19.7195 8.11697 18.0517 8.11697 18.0517H6.84559V10.9879L5.67199 1.96189Z" fill="white"/>
<path d="M20.2447 32.0816V41.3038H19.4623V32.1797H18.5821C13.6921 33.8475 12.1274 38.0662 11.345 40.1265C11.1494 40.617 11.0516 41.0095 10.9538 41.1076C10.856 41.1076 10.1714 41.1076 10.0736 41.1076C10.856 38.1643 12.6164 34.24 16.4305 32.0816V31.9835C9.78018 34.6324 6.55281 37.3794 4.49902 42.2849V42.383H35.8926V42.2849C33.4476 35.7116 27.1884 33.0627 23.7655 32.0816L23.5699 31.9835V32.0816C27.384 33.9456 29.6334 38.0662 30.1224 41.2057H29.4378C29.2422 40.9113 29.1444 40.4208 28.9488 39.9303C28.1664 37.7719 26.7972 34.1418 21.4183 31.9835H20.2447V32.0816Z" fill="white"/>
<path d="M8.89992 62.2008C6.06374 59.5519 4.20556 56.1181 3.61876 52.2919C4.79235 52.2919 34.8167 52.2919 35.9903 52.2919C34.8167 60.4349 27.9708 66.4195 19.8534 66.4195C15.8437 66.5176 11.9317 64.9479 8.89992 62.2008ZM2.54297 51.8013C3.03196 56.1181 4.98795 60.1405 8.21532 62.9857C11.4427 65.9289 15.6481 67.5968 20.049 67.5968C28.9487 67.5968 36.3815 60.8273 37.3595 51.8013L37.4573 51.2127H2.54297V51.8013Z" fill="white"/>
<path d="M11.2471 60.435C13.2031 64.8498 16.3326 67.4988 19.8534 67.4988C23.3742 67.4988 26.5037 64.948 28.3619 60.5331L27.3839 60.1406C25.6236 64.2612 22.8852 66.5177 19.8534 66.5177C16.8216 66.5177 14.0832 64.1631 12.2251 60.1406L11.2471 60.435Z" fill="white"/>
<path d="M19.4739 60.0613L19.4512 66.8308L20.527 66.8345L20.5497 60.065L19.4739 60.0613Z" fill="white"/>
<path d="M9.29102 51.8014V52.2919C9.29102 52.6844 9.29102 53.1749 9.48661 53.9598L10.5624 53.7636C10.4646 53.0768 10.4646 52.7825 10.4646 52.3901V51.8014H9.29102Z" fill="white"/>
<path d="M29.437 52.2919C29.437 52.7825 29.3392 53.0768 29.1436 53.6654L30.1215 54.0579C30.4149 53.3711 30.4149 52.8806 30.4149 52.39V52.1938L29.5348 51.9976L29.437 52.2919Z" fill="white"/>
<path d="M20.5377 51.8014H19.4619V53.8617H20.5377V51.8014Z" fill="white"/>
<path d="M22.2002 43.5601V50.2315H24.254V45.5223C24.3518 45.5223 28.0681 45.5223 28.0681 45.5223C28.1659 45.5223 28.4593 45.6204 28.4593 46.0128C28.4593 46.4053 28.4593 50.2315 28.4593 50.2315V50.3296H30.8065V45.9147C30.8065 45.0317 30.2197 43.6582 29.0461 43.6582H22.2002V43.5601Z" fill="white"/>
<path d="M29.0461 43.6583C30.2197 43.6583 30.7087 45.0318 30.7087 45.9148V50.2316H28.4593C28.4593 50.2316 28.4593 47.2883 28.4593 46.0129C28.3615 45.5223 28.0681 45.5223 27.9703 45.5223C27.3836 45.5223 25.9166 45.5223 24.1562 45.5223V50.2316H22.2002V43.6583C22.5914 43.6583 26.0144 43.6583 29.0461 43.6583Z" fill="white"/>
<path d="M0 43.5601V44.1488H0.0977996C0.195599 44.1488 0.391196 44.1488 0.391196 44.345V49.5447C0.391196 49.6429 0.0977992 49.741 0 49.8391V50.3296H3.12958V49.8391H3.03178C3.03178 49.8391 2.73838 49.8391 2.73838 49.6428V44.4431C2.73838 44.2469 3.03178 44.2469 3.03178 44.2469V43.7563H0V43.5601Z" fill="white"/>
<path d="M0.0976562 43.6583H3.12943V44.0507C3.12943 44.0507 2.73823 44.1488 2.73823 44.345V49.5448C2.73823 49.8391 3.12943 49.8391 3.12943 49.8391V50.2316H0.0976562V49.8391C0.0976562 49.8391 0.488853 49.741 0.488853 49.5448V44.345C0.391053 44.1488 0.0976562 44.1488 0.0976562 44.1488V43.6583Z" fill="white"/>
<path d="M3.91225 43.5601C3.91225 43.9526 3.91225 44.0507 3.91225 44.1488V44.345C3.91225 45.0317 4.79245 46.0128 5.47704 46.8958C5.86824 47.3864 6.25943 47.8769 6.25943 47.975C6.25943 48.1712 6.25943 48.2693 6.16163 48.3674C5.96603 48.5637 5.77044 48.6618 5.47704 48.6618H3.81445V50.3296H6.74843C7.33522 50.3296 7.82422 50.0353 8.21542 49.6428C8.60661 49.2504 8.80221 48.7599 8.70441 48.2693C8.70441 47.2882 7.92202 46.5034 7.33522 45.8166C6.65063 45.1299 6.06384 44.4431 6.06384 43.6582V43.5601H3.91225Z" fill="white"/>
<path d="M4.0102 43.6583H5.96618C5.86838 45.228 8.50896 46.4053 8.60676 48.2694C8.60676 49.3486 7.62876 50.2316 6.65077 50.2316H3.7168V48.6618H5.37938C5.86838 48.6618 6.35738 48.4656 6.25958 47.9751C6.25958 47.4845 3.9124 45.4242 3.9124 44.345C4.0102 44.0507 4.0102 44.1488 4.0102 43.6583Z" fill="white"/>
<path d="M8.89941 43.5601V50.3296H14.0828V48.5637H11.1488V43.5601H8.89941Z" fill="white"/>
<path d="M8.99707 43.6583H11.0509V48.6618H13.9848V50.2316H8.99707V43.6583Z" fill="white"/>
<path d="M38.0434 43.5601C37.4566 43.5601 34.5226 43.7563 34.4248 46.8958C34.4248 47.8769 34.7182 48.6618 35.305 49.2504C35.8918 49.9372 36.8698 50.2315 37.9456 50.2315H39.9994V48.5637H39.4126C39.1192 48.5637 38.8258 48.5637 38.5324 48.5637C37.9456 48.4655 36.8698 48.1712 36.8698 46.7977C36.8698 45.8166 37.5544 45.228 38.5324 45.228H39.9994V43.5601H38.0434Z" fill="white"/>
<path d="M38.0432 43.6583H39.9014V45.228H38.4344C37.4564 45.228 36.7718 45.8167 36.7718 46.8959C36.7718 48.0732 37.5542 48.5637 38.4344 48.6618C38.9234 48.6618 39.3146 48.6618 39.9014 48.6618V50.2316H37.9454C35.8916 50.2316 34.5225 48.9561 34.5225 46.8959C34.5225 44.2469 36.674 43.6583 38.0432 43.6583Z" fill="white"/>
<path d="M27.3839 45.8167H25.3301V50.2316H27.3839V45.8167Z" fill="white"/>
<path d="M27.3837 45.9148H25.4277V50.2316H27.3837V45.9148Z" fill="white"/>
<path d="M31.1006 43.5601V44.1488H31.1984C31.2962 44.1488 31.4918 44.1488 31.4918 44.345V49.5447C31.4918 49.6429 31.1984 49.741 31.1006 49.8391V50.3296H34.2302V49.8391H34.1324C34.1324 49.8391 33.839 49.8391 33.839 49.6428V44.4431C33.839 44.2469 34.1324 44.2469 34.1324 44.2469V43.7563H31.1006V43.5601Z" fill="white"/>
<path d="M31.1973 43.6583H34.229V44.0507C34.229 44.0507 33.8378 44.1488 33.8378 44.345V49.5448C33.8378 49.8391 34.229 49.8391 34.229 49.8391V50.2316H31.1973V49.8391C31.1973 49.8391 31.5885 49.741 31.5885 49.5448V44.345C31.4907 44.1488 31.1973 44.1488 31.1973 44.1488V43.6583Z" fill="white"/>
<path d="M17.8969 45.9147C18.0925 46.4053 18.4837 47.6807 18.5815 48.0731H17.3101C17.4079 47.7788 17.7991 46.5034 17.8969 45.9147ZM17.2123 43.5601L17.6035 44.4431C17.7013 44.6393 17.7013 44.7374 17.8969 45.1299H16.1365L14.2783 50.0353V50.2315H16.8211V50.1334C16.8211 50.1334 16.8211 49.9372 16.9189 49.8391H19.3639C19.3639 49.9372 19.4617 50.0353 19.4617 50.2315H22.1023V50.0353L19.5595 43.5601H17.2123Z" fill="white"/>
<path d="M17.3102 48.0732C17.3102 48.0732 17.897 46.111 17.9948 45.7186C17.9948 45.8167 18.7772 48.0732 18.7772 48.0732H17.3102ZM19.4618 43.6583H17.2124C17.6036 44.6394 17.5058 44.345 17.897 45.228H16.0388L14.1807 50.1334V50.2316H16.6256C16.6256 50.2316 16.6256 50.0353 16.7234 49.8391H19.1684C19.1684 49.8391 19.1684 50.0353 19.2662 50.2316H21.9068V50.1334L19.4618 43.6583Z" fill="white"/>
<path d="M20.5378 30.8061V30.0212L20.3422 29.6288V29.2363C20.44 29.1382 20.5378 29.0401 20.5378 29.0401C20.5378 28.942 20.5378 28.942 20.5378 28.942C20.5378 28.942 20.3422 29.1382 20.1466 29.1382C19.951 29.1382 19.7554 29.0401 19.7554 28.7458C19.7554 28.4515 19.951 28.3534 20.1466 28.3534C20.3422 28.3534 20.5378 28.6477 20.5378 28.6477V28.5496C20.5378 28.5496 20.3422 28.1572 19.951 28.1572C19.6576 28.1572 19.2664 28.4515 19.2664 28.7458C19.2664 29.0401 19.462 29.2363 19.6576 29.3345V29.7269L19.462 30.1193V30.9042C12.0293 32.1796 28.0684 31.9834 20.5378 30.8061Z" fill="white"/>
<path d="M55.2761 2.36499V18.3711C55.2761 18.744 55.0903 18.9304 54.7188 18.9304H52.4633C52.0918 18.9304 51.906 18.744 51.906 18.3711V2.36499C51.906 1.99214 52.0918 1.80571 52.4633 1.80571H54.7188C55.0903 1.80571 55.2761 1.99214 55.2761 2.36499Z" fill="white"/>
<path d="M58.4232 14.5627V14.03C58.4232 13.6572 58.609 13.4708 58.9805 13.4708H61.236C61.6075 13.4708 61.7932 13.6572 61.7932 14.03V14.2431C61.7932 15.6014 62.2443 16.0008 63.6507 16.0008H64.8979C66.2777 16.0008 66.7554 15.5747 66.7554 14.1099V13.7903C66.7554 12.7517 65.8266 12.219 64.5794 12.1125C63.9691 12.0592 63.3057 11.9527 62.5893 11.7929C61.1564 11.5 59.8561 11.207 59.0335 9.79547C58.609 9.10302 58.3967 8.19752 58.3967 7.10558V6.17344C58.3967 3.40366 60.0419 1.80571 62.8016 1.80571H65.4551C68.2413 1.80571 69.8865 3.40366 69.8865 6.17344V6.67946C69.8865 7.05232 69.7008 7.23875 69.3293 7.23875H67.0738C66.7023 7.23875 66.5165 7.05232 66.5165 6.67946V6.51967C66.5165 5.13478 66.0654 4.73529 64.659 4.73529H63.6242C62.1647 4.73529 61.7667 5.16141 61.7667 6.75936V7.26538C61.7667 8.09099 62.4831 8.57037 63.9426 8.70354C65.4551 8.8367 66.7819 9.12966 67.9494 9.60904C69.1966 10.1417 70.1254 11.5266 70.1254 13.6572V14.5627C70.1254 17.3325 68.4802 18.9304 65.7205 18.9304H62.8281C60.0684 18.9304 58.4232 17.3325 58.4232 14.5627Z" fill="white"/>
<path d="M82.4395 18.9304H73.7093C73.3378 18.9304 73.1521 18.744 73.1521 18.3711V2.36499C73.1521 1.99214 73.3378 1.80571 73.7093 1.80571H75.9648C76.3363 1.80571 76.5221 1.99214 76.5221 2.36499V15.6813C76.5221 15.8677 76.6282 15.9742 76.8405 15.9742H82.4395C82.7845 15.9742 82.9702 16.1606 82.9702 16.5601V18.3711C82.9702 18.744 82.7845 18.9304 82.4395 18.9304Z" fill="white"/>
<path d="M87.0094 18.9304H84.462C84.2232 18.9304 84.117 18.8239 84.117 18.6108C84.117 18.5309 84.117 18.451 84.1436 18.3711L88.3362 2.36499C88.4689 1.99214 88.7342 1.80571 89.1322 1.80571H92.6615C93.1126 1.80571 93.3779 1.99214 93.4575 2.36499L97.6501 18.3711C97.6767 18.451 97.7032 18.5309 97.7032 18.6108C97.7032 18.8239 97.5705 18.9304 97.3317 18.9304H94.7843C94.3863 18.9304 94.3067 18.7973 94.2271 18.3711L93.4841 15.4416H88.3096L87.5666 18.3711C87.487 18.7973 87.3544 18.9304 87.0094 18.9304ZM90.9632 5.02825H90.857L88.9465 12.725H92.8737L90.9632 5.02825Z" fill="white"/>
<path d="M111.174 1.80571H115.101C115.472 1.80571 115.658 1.99214 115.658 2.36499V18.3711C115.658 18.744 115.472 18.9304 115.101 18.9304H112.925C112.554 18.9304 112.368 18.744 112.368 18.3711V5.74732H112.262L109.555 14.6692C109.449 15.0154 109.237 15.2019 108.892 15.2019H106.663C106.318 15.2019 106.105 15.0154 105.999 14.6692L103.24 5.72069H103.133V18.3711C103.133 18.7973 103.027 18.9304 102.576 18.9304H100.4C100.029 18.9304 99.843 18.744 99.843 18.3711V2.36499C99.843 1.99214 100.029 1.80571 100.4 1.80571H104.354C104.593 1.80571 104.779 1.93887 104.858 2.17857L107.671 11.5798H107.83L110.67 2.17857C110.723 1.93887 110.882 1.80571 111.174 1.80571Z" fill="white"/>
<path d="M122.6 2.36499V18.3711C122.6 18.744 122.414 18.9304 122.042 18.9304H119.787C119.415 18.9304 119.23 18.744 119.23 18.3711V2.36499C119.23 1.99214 119.415 1.80571 119.787 1.80571H122.042C122.414 1.80571 122.6 1.99214 122.6 2.36499Z" fill="white"/>
<path d="M133.177 18.9304H130.284C127.498 18.9304 125.906 17.3857 125.906 14.5893V6.14681C125.906 3.3504 127.498 1.80571 130.284 1.80571H133.177C135.936 1.80571 137.555 3.37703 137.555 6.14681V7.39854C137.555 7.79803 137.369 7.98446 136.971 7.98446H134.742C134.371 7.98446 134.185 7.79803 134.185 7.39854V6.30661C134.185 5.16141 133.76 4.73529 132.619 4.73529H130.815C129.727 4.73529 129.276 5.16141 129.276 6.30661V14.4295C129.276 15.5747 129.727 16.0008 130.815 16.0008H132.619C133.76 16.0008 134.185 15.5747 134.185 14.4295V13.3376C134.185 12.9381 134.371 12.7517 134.742 12.7517H136.971C137.369 12.7517 137.555 12.9381 137.555 13.3376V14.5893C137.555 17.3591 135.936 18.9304 133.177 18.9304Z" fill="white"/>
<path d="M54.5861 41.7583H52.3306C51.9591 41.7583 51.7734 41.5719 51.7734 41.199V25.1929C51.7734 24.82 51.9591 24.6336 52.3306 24.6336H58.6461C61.4058 24.6336 63.051 26.2315 63.051 29.0013V31.0787C63.051 33.0761 62.2549 34.4077 60.6893 35.0736V35.1801L63.5286 41.1191C63.5551 41.2257 63.5817 41.3322 63.5817 41.4121C63.5817 41.6518 63.4225 41.7583 63.0775 41.7583H60.9281C60.2913 41.7583 60.079 41.6518 59.8932 41.199L57.2397 35.4464H55.4618C55.2495 35.4464 55.1434 35.5529 55.1434 35.7394V41.199C55.1434 41.5719 54.9576 41.7583 54.5861 41.7583ZM55.4353 32.7299H58.0357C59.1768 32.7299 59.6809 32.2771 59.6809 31.2118V29.1345C59.6809 28.0426 59.1768 27.5632 58.0357 27.5632H55.4353C55.2495 27.5632 55.1434 27.6697 55.1434 27.8561V32.4369C55.1434 32.6234 55.2495 32.7299 55.4353 32.7299Z" fill="white"/>
<path d="M75.5193 41.7583H66.8422C66.4707 41.7583 66.285 41.5719 66.285 41.199V25.1929C66.285 24.82 66.4707 24.6336 66.8422 24.6336H75.5193C75.8643 24.6336 76.05 24.82 76.05 25.1929V27.0039C76.05 27.3767 75.8643 27.5632 75.5193 27.5632H69.9734C69.7611 27.5632 69.655 27.6697 69.655 27.8561V31.3184C69.655 31.5048 69.7611 31.6113 69.9734 31.6113H74.7763C75.1478 31.6113 75.3336 31.7977 75.3336 32.1706V33.9816C75.3336 34.3545 75.1478 34.5409 74.7763 34.5409H69.9734C69.7611 34.5409 69.655 34.6474 69.655 34.8339V38.5358C69.655 38.7222 69.7611 38.8287 69.9734 38.8287H75.5193C75.8643 38.8287 76.05 39.0152 76.05 39.388V41.199C76.05 41.5719 75.8643 41.7583 75.5193 41.7583Z" fill="white"/>
<path d="M88.27 41.7583H79.5399C79.1684 41.7583 78.9826 41.5719 78.9826 41.199V25.1929C78.9826 24.82 79.1684 24.6336 79.5399 24.6336H81.7954C82.1669 24.6336 82.3526 24.82 82.3526 25.1929V38.5091C82.3526 38.6956 82.4588 38.8021 82.6711 38.8021H88.27C88.615 38.8021 88.8008 38.9885 88.8008 39.388V41.199C88.8008 41.5719 88.615 41.7583 88.27 41.7583Z" fill="white"/>
<path d="M94.4055 25.1929V41.199C94.4055 41.5719 94.2198 41.7583 93.8483 41.7583H91.5928C91.2213 41.7583 91.0355 41.5719 91.0355 41.199V25.1929C91.0355 24.82 91.2213 24.6336 91.5928 24.6336H93.8483C94.2198 24.6336 94.4055 24.82 94.4055 25.1929Z" fill="white"/>
<path d="M107.212 41.7583H98.5345C98.163 41.7583 97.9773 41.5719 97.9773 41.199V25.1929C97.9773 24.82 98.163 24.6336 98.5345 24.6336H107.212C107.557 24.6336 107.742 24.82 107.742 25.1929V27.0039C107.742 27.3767 107.557 27.5632 107.212 27.5632H101.666C101.453 27.5632 101.347 27.6697 101.347 27.8561V31.3184C101.347 31.5048 101.453 31.6113 101.666 31.6113H106.469C106.84 31.6113 107.026 31.7977 107.026 32.1706V33.9816C107.026 34.3545 106.84 34.5409 106.469 34.5409H101.666C101.453 34.5409 101.347 34.6474 101.347 34.8339V38.5358C101.347 38.7222 101.453 38.8287 101.666 38.8287H107.212C107.557 38.8287 107.742 39.0152 107.742 39.388V41.199C107.742 41.5719 107.557 41.7583 107.212 41.7583Z" fill="white"/>
<path d="M113.488 41.7583H111.232C110.861 41.7583 110.675 41.5719 110.675 41.199V25.1929C110.675 24.82 110.861 24.6336 111.232 24.6336H119.697C120.042 24.6336 120.228 24.82 120.228 25.1929V27.0039C120.228 27.3767 120.042 27.5632 119.697 27.5632H114.363C114.151 27.5632 114.045 27.6697 114.045 27.8561V31.7178C114.045 31.9309 114.151 32.0374 114.363 32.0374H119.166C119.538 32.0374 119.724 32.2239 119.724 32.5967V34.3811C119.724 34.7806 119.538 34.967 119.166 34.967H114.363C114.151 34.967 114.045 35.0735 114.045 35.26V41.199C114.045 41.5719 113.859 41.7583 113.488 41.7583Z" fill="white"/>
<path d="M51.3488 60.2185V59.6858C51.3488 59.313 51.5345 59.1265 51.906 59.1265H54.1616C54.5331 59.1265 54.7188 59.313 54.7188 59.6858V59.8989C54.7188 61.2571 55.1699 61.6566 56.5763 61.6566H57.8235C59.2033 61.6566 59.6809 61.2305 59.6809 59.7657V59.4461C59.6809 58.4075 58.7522 57.8748 57.505 57.7683C56.8947 57.715 56.2313 57.6085 55.5149 57.4487C54.082 57.1557 52.7817 56.8628 51.9591 55.4512C51.5345 54.7588 51.3223 53.8533 51.3223 52.7614V51.8292C51.3223 49.0594 52.9675 47.4615 55.7272 47.4615H58.3807C61.1669 47.4615 62.8121 49.0594 62.8121 51.8292V52.3352C62.8121 52.7081 62.6264 52.8945 62.2549 52.8945H59.9994C59.6279 52.8945 59.4421 52.7081 59.4421 52.3352V52.1754C59.4421 50.7905 58.991 50.3911 57.5846 50.3911H56.5498C55.0903 50.3911 54.6923 50.8172 54.6923 52.4151V52.9212C54.6923 53.7468 55.4087 54.2261 56.8682 54.3593C58.3807 54.4925 59.7075 54.7854 60.875 55.2648C62.1222 55.7975 63.051 57.1824 63.051 59.313V60.2185C63.051 62.9883 61.4058 64.5862 58.6461 64.5862H55.7537C52.994 64.5862 51.3488 62.9883 51.3488 60.2185Z" fill="white"/>
<path d="M72.0481 64.5862H68.3332C67.9351 64.5862 67.7229 64.3998 67.6698 64.0269L64.8305 48.0208V47.9142C64.8305 47.6213 65.0162 47.4615 65.3877 47.4615H68.1474C68.5455 47.4615 68.7577 47.6479 68.7843 48.0208L70.3233 61.1506H70.5091L73.0565 47.9409C73.1096 47.6213 73.2953 47.4615 73.6137 47.4615H76.5857C76.9307 47.4615 77.1164 47.6213 77.1695 47.9142L79.77 61.1506H79.9823L81.4948 48.0474C81.5213 47.6479 81.7336 47.4615 82.1316 47.4615H84.8913C85.2628 47.4615 85.4486 47.6213 85.4486 47.9142V48.0474L82.5827 64.0269C82.5297 64.3998 82.3174 64.5862 81.9724 64.5862H78.2309C77.8594 64.5862 77.6471 64.3998 77.5941 64.0269L75.2059 51.5363H75.0997L72.685 64.0269C72.6054 64.3998 72.3931 64.5862 72.0481 64.5862Z" fill="white"/>
<path d="M90.985 48.0208V64.0269C90.985 64.3998 90.7992 64.5862 90.4277 64.5862H88.1722C87.8007 64.5862 87.6149 64.3998 87.6149 64.0269V48.0208C87.6149 47.6479 87.8007 47.4615 88.1722 47.4615H90.4277C90.7992 47.4615 90.985 47.6479 90.985 48.0208Z" fill="white"/>
<path d="M99.8372 64.5862H97.6083C97.2102 64.5862 97.0245 64.3998 97.0245 64.0269V50.684C97.0245 50.4976 96.9183 50.3911 96.7326 50.3911H93.7075C93.336 50.3911 93.1503 50.2046 93.1503 49.8318V48.0208C93.1503 47.6479 93.336 47.4615 93.7075 47.4615H103.738C104.109 47.4615 104.295 47.6479 104.295 48.0208V49.8318C104.295 50.2046 104.109 50.3911 103.738 50.3911H100.713C100.501 50.3911 100.394 50.4976 100.394 50.684V64.0269C100.394 64.3998 100.209 64.5862 99.8372 64.5862Z" fill="white"/>
<path d="M115.556 64.5862H106.879C106.507 64.5862 106.321 64.3998 106.321 64.0269V48.0208C106.321 47.6479 106.507 47.4615 106.879 47.4615H115.556C115.901 47.4615 116.087 47.6479 116.087 48.0208V49.8318C116.087 50.2046 115.901 50.3911 115.556 50.3911H110.01C109.798 50.3911 109.691 50.4976 109.691 50.684V54.1462C109.691 54.3327 109.798 54.4392 110.01 54.4392H114.813C115.184 54.4392 115.37 54.6256 115.37 54.9985V56.8095C115.37 57.1824 115.184 57.3688 114.813 57.3688H110.01C109.798 57.3688 109.691 57.4753 109.691 57.6617V61.3637C109.691 61.5501 109.798 61.6566 110.01 61.6566H115.556C115.901 61.6566 116.087 61.843 116.087 62.2159V64.0269C116.087 64.3998 115.901 64.5862 115.556 64.5862Z" fill="white"/>
<path d="M121.832 64.5862H119.576C119.205 64.5862 119.019 64.3998 119.019 64.0269V48.0208C119.019 47.6479 119.205 47.4615 119.576 47.4615H125.892C128.651 47.4615 130.297 49.0594 130.297 51.8292V53.9066C130.297 55.904 129.501 57.2356 127.935 57.9014V58.008L130.774 63.947C130.801 64.0536 130.827 64.1601 130.827 64.24C130.827 64.4797 130.668 64.5862 130.323 64.5862H128.174C127.537 64.5862 127.325 64.4797 127.139 64.0269L124.485 58.2743H122.708C122.495 58.2743 122.389 58.3808 122.389 58.5672V64.0269C122.389 64.3998 122.203 64.5862 121.832 64.5862ZM122.681 55.5578H125.281C126.422 55.5578 126.927 55.105 126.927 54.0397V51.9624C126.927 50.8704 126.422 50.3911 125.281 50.3911H122.681C122.495 50.3911 122.389 50.4976 122.389 50.684V55.2648C122.389 55.4512 122.495 55.5578 122.681 55.5578Z" fill="white"/>
<path d="M142.818 64.5862H134.088C133.716 64.5862 133.531 64.3998 133.531 64.0269V48.0208C133.531 47.6479 133.716 47.4615 134.088 47.4615H136.343C136.715 47.4615 136.901 47.6479 136.901 48.0208V61.337C136.901 61.5235 137.007 61.63 137.219 61.63H142.818C143.163 61.63 143.349 61.8164 143.349 62.2159V64.0269C143.349 64.3998 143.163 64.5862 142.818 64.5862Z" fill="white"/>
<path d="M147.388 64.5862H144.841C144.602 64.5862 144.496 64.4797 144.496 64.2666C144.496 64.1867 144.496 64.1068 144.522 64.0269L148.715 48.0208C148.847 47.6479 149.113 47.4615 149.511 47.4615H153.04C153.491 47.4615 153.757 47.6479 153.836 48.0208L158.029 64.0269C158.055 64.1068 158.082 64.1867 158.082 64.2666C158.082 64.4797 157.949 64.5862 157.71 64.5862H155.163C154.765 64.5862 154.685 64.453 154.606 64.0269L153.863 61.0973H148.688L147.945 64.0269C147.866 64.453 147.733 64.5862 147.388 64.5862ZM151.342 50.684H151.236L149.325 58.3808H153.252L151.342 50.684Z" fill="white"/>
<path d="M162.981 64.5862H160.779C160.407 64.5862 160.222 64.3998 160.222 64.0269V48.0208C160.222 47.6479 160.407 47.4615 160.779 47.4615H162.769C163.141 47.4615 163.379 47.5946 163.512 47.8343L168.872 57.9281H168.978V48.0208C168.978 47.6479 169.164 47.4615 169.536 47.4615H171.738C172.11 47.4615 172.295 47.6479 172.295 48.0208V64.0269C172.295 64.3998 172.11 64.5862 171.738 64.5862H169.801C169.403 64.5862 169.138 64.3998 168.952 64.0536L163.645 54.1462H163.539V64.0269C163.539 64.3998 163.353 64.5862 162.981 64.5862Z" fill="white"/>
<path d="M175.744 64.0269V48.0208C175.744 47.6479 175.93 47.4615 176.301 47.4615H182.855C185.615 47.4615 187.234 49.0328 187.234 51.8026V60.2451C187.234 63.0149 185.615 64.5862 182.855 64.5862H176.301C175.93 64.5862 175.744 64.3998 175.744 64.0269ZM179.406 61.6566H182.298C183.439 61.6566 183.864 61.2305 183.864 60.0853V51.9624C183.864 50.8172 183.439 50.3911 182.298 50.3911H179.406C179.22 50.3911 179.114 50.4976 179.114 50.684V61.3637C179.114 61.5501 179.22 61.6566 179.406 61.6566Z" fill="white"/>
</svg>
