<svg width="100" height="73" viewBox="0 0 100 73" fill="none" xmlns="http://www.w3.org/2000/svg">
<path d="M8.38261 52.2805C8.38261 52.7118 7.73774 52.5681 7.45113 52.5681C7.45113 52.3524 7.45113 51.993 7.45113 51.993C7.80939 51.993 8.38261 51.8493 8.38261 52.2805ZM8.88417 52.9993C8.88417 52.9993 9.31409 52.7118 9.31409 52.2087C9.31409 51.6336 8.88417 51.2742 8.16765 51.2742H6.30469V54.6526H7.37947V53.5025H8.02435C8.52591 53.5744 8.2393 54.0056 8.38261 54.6526C8.38261 54.6526 9.02748 54.6526 9.45739 54.6526C9.24244 54.5088 9.6007 53.5025 9.09913 53.215C9.09913 53.0712 9.31409 53.215 8.88417 52.9993Z" fill="#0778D4"/>
<path d="M9.81641 51.2027H12.5392V51.9215H10.8912V52.5684H12.2526V53.2872H10.8912V53.9341H12.6108V54.581H9.81641V51.2027Z" fill="#0778D4"/>
<path d="M13.1123 51.2027H14.1871V53.9341H15.6918V54.581H13.1123V51.2027Z" fill="#0778D4"/>
<path d="M17.0523 51.2027H15.9775V54.581H17.0523V51.2027Z" fill="#0778D4"/>
<path d="M17.7695 51.2027H20.4207V51.9215H18.7727V52.5684H20.1341V53.2872H18.7727V53.9341H20.564V54.581H17.7695V51.2027Z" fill="#0778D4"/>
<path d="M20.9229 51.2027H23.5023V51.9215H21.9976V52.6403H23.1441V53.3591H21.9976V54.581H20.9229V51.2027Z" fill="#0778D4"/>
<path d="M25.2933 12.6752C25.0066 12.6033 24.5767 12.3158 24.6484 11.9564C24.72 11.5251 24.935 11.2376 25.3649 11.2376C25.7948 11.2376 26.0098 11.6689 26.0098 11.6689V11.7407H25.9381C25.9381 11.7407 25.5799 11.4532 25.3649 11.5251C25.2216 11.597 25.0783 11.7407 25.0783 11.9564C25.0783 12.2439 25.2933 12.3876 25.5082 12.3876C25.7232 12.3876 26.0098 12.172 26.0098 12.172H26.0814C26.0814 12.172 26.0814 12.172 26.0814 12.3158C26.0814 12.3876 25.8665 12.6033 25.5799 12.6752L26.798 19.0724V24.3196H27.7294C27.7294 24.3196 27.7294 25.3978 26.798 26.0447V30.2137H27.7294C27.7294 30.2137 27.7294 31.3637 26.798 31.9387V42.0018C26.5113 40.7799 25.5799 39.1985 24.2185 37.8328V32.0106C23.2153 31.4356 23.3586 30.2137 23.3586 30.2137H24.2901V26.1884C23.287 25.6134 23.4303 24.3914 23.4303 24.3914H24.3618V19.2162L25.2933 12.6752Z" fill="#0778D4"/>
<path d="M4.15529 12.6749C4.51356 12.6031 4.51356 12.5312 4.58521 12.3874C4.65686 12.3155 4.65686 12.1718 4.65686 12.1718H4.58521C4.58521 12.1718 4.37025 12.3874 4.08364 12.3874C3.86869 12.3874 3.65373 12.2437 3.65373 11.9562C3.65373 11.6686 3.86869 11.5249 4.01199 11.5249C4.22695 11.5249 4.37025 11.7405 4.37025 11.7405L4.51356 11.8124V11.7405C4.51356 11.7405 4.2986 11.3092 3.86869 11.3092C3.51042 11.3092 3.22381 11.453 3.15216 12.028C3.08051 12.3874 3.43877 12.6749 3.79703 12.7468L2.57894 19.1441V24.3912H1.64746C1.64746 24.3912 1.64746 25.4694 2.57894 26.1163V30.2853H1.64746C1.64746 30.2853 1.64746 31.4354 2.57894 32.0104V41.786C3.08051 40.4203 3.79703 39.3421 5.15843 37.9045V32.0823C6.16156 31.5073 6.01826 30.2853 6.01826 30.2853H5.08678V26.2601C6.08991 25.6851 5.9466 24.4631 5.9466 24.4631H5.01512V19.2878L4.15529 12.6749Z" fill="#0778D4"/>
<path d="M14.8319 34.7428V41.4994H14.2587V34.8146H13.6138C10.0312 36.0366 8.88479 39.1274 8.31157 40.6368C8.16826 40.9962 8.09661 41.2838 8.02496 41.3556C7.95331 41.3556 7.45174 41.3556 7.38008 41.3556C7.9533 39.1993 9.24305 36.3241 12.0375 34.7428V34.6709C7.16513 36.6116 4.8006 38.6242 3.2959 42.2182V42.2901H26.2963V42.2182C24.505 37.4023 19.9193 35.4615 17.4114 34.7428L17.2681 34.6709V34.7428C20.0626 36.1085 21.7106 39.1274 22.0688 41.4275H21.5673C21.424 41.2119 21.3523 40.8525 21.209 40.4931C20.6358 38.9117 19.6326 36.2522 15.6918 34.6709H14.8319V34.7428Z" fill="#0778D4"/>
<path d="M6.52069 56.8091C4.44277 54.8683 3.08137 52.3526 2.65146 49.5493C3.51129 49.5493 25.5086 49.5493 26.3684 49.5493C25.5086 55.5153 20.4929 59.8999 14.5458 59.8999C11.608 59.9718 8.74191 58.8217 6.52069 56.8091ZM1.86328 49.1899C2.22154 52.3526 3.65459 55.2996 6.01912 57.3841C8.38365 59.5405 11.4647 60.7624 14.6891 60.7624C21.2094 60.7624 26.655 55.8028 27.3715 49.1899L27.4432 48.7586H1.86328V49.1899Z" fill="#0778D4"/>
<path d="M8.24023 55.5151C9.67328 58.7497 11.9662 60.6904 14.5456 60.6904C17.1251 60.6904 19.418 58.8216 20.7794 55.587L20.0629 55.2995C18.7731 58.3184 16.7669 59.9716 14.5456 59.9716C12.3244 59.9716 10.3182 58.2465 8.95676 55.2995L8.24023 55.5151Z" fill="#0778D4"/>
<path d="M14.2676 55.2409L14.251 60.2005L15.0392 60.2032L15.0558 55.2435L14.2676 55.2409Z" fill="#0778D4"/>
<path d="M6.80664 49.1893V49.5487C6.80664 49.8362 6.80664 50.1956 6.94995 50.7707L7.73812 50.6269C7.66647 50.1238 7.66647 49.9081 7.66647 49.6206V49.1893H6.80664Z" fill="#0778D4"/>
<path d="M21.5665 49.5495C21.5665 49.9089 21.4949 50.1245 21.3516 50.5558L22.0681 50.8433C22.283 50.3402 22.283 49.9808 22.283 49.6214V49.4776L21.6382 49.3339L21.5665 49.5495Z" fill="#0778D4"/>
<path d="M15.047 49.1893H14.2588V50.6988H15.047V49.1893Z" fill="#0778D4"/>
<path d="M16.2646 43.1521V48.0399H17.7693V44.5897C17.841 44.5897 20.5638 44.5897 20.5638 44.5897C20.6354 44.5897 20.8504 44.6616 20.8504 44.9491C20.8504 45.2366 20.8504 48.0399 20.8504 48.0399V48.1118H22.5701V44.8772C22.5701 44.2303 22.1401 43.224 21.2803 43.224H16.2646V43.1521Z" fill="#0778D4"/>
<path d="M21.2803 43.2237C22.1401 43.2237 22.4984 44.23 22.4984 44.877V48.0396H20.8504C20.8504 48.0396 20.8504 45.8833 20.8504 44.9488C20.7787 44.5894 20.5638 44.5894 20.4921 44.5894C20.0622 44.5894 18.9874 44.5894 17.6977 44.5894V48.0396H16.2646V43.2237C16.5513 43.2237 19.0591 43.2237 21.2803 43.2237Z" fill="#0778D4"/>
<path d="M0 43.1521V43.5834H0.0716527C0.143305 43.5834 0.286609 43.5834 0.286609 43.7272V47.5368C0.286609 47.6086 0.0716524 47.6805 0 47.7524V48.1118H2.29288V47.7524H2.22123C2.22123 47.7524 2.00627 47.7524 2.00627 47.6086V43.7991C2.00627 43.6553 2.22123 43.6553 2.22123 43.6553V43.2959H0V43.1521Z" fill="#0778D4"/>
<path d="M0.0712891 43.2237H2.29251V43.5112C2.29251 43.5112 2.0059 43.5831 2.0059 43.7269V47.5365C2.0059 47.7521 2.29251 47.7521 2.29251 47.7521V48.0396H0.0712891V47.7521C0.0712891 47.7521 0.357898 47.6802 0.357898 47.5365V43.7269C0.286246 43.5831 0.0712891 43.5831 0.0712891 43.5831V43.2237Z" fill="#0778D4"/>
<path d="M2.86657 43.1521C2.86657 43.4397 2.86657 43.5115 2.86657 43.5834V43.7272C2.86657 44.2303 3.51145 44.9491 4.01301 45.596C4.29962 45.9554 4.58623 46.3148 4.58623 46.3867C4.58623 46.5305 4.58623 46.6023 4.51458 46.6742C4.37127 46.818 4.22797 46.8898 4.01301 46.8898H2.79492V48.1118H4.94449C5.37441 48.1118 5.73267 47.8962 6.01928 47.6086C6.30589 47.3211 6.44919 46.9617 6.37754 46.6023C6.37754 45.8835 5.80432 45.3085 5.37441 44.8054C4.87284 44.3022 4.44293 43.799 4.44293 43.224V43.1521H2.86657Z" fill="#0778D4"/>
<path d="M2.93761 43.2237H4.37066C4.29901 44.3737 6.23362 45.2363 6.30528 46.602C6.30528 47.3927 5.58875 48.0396 4.87223 48.0396H2.72266V46.8895H3.94075C4.29901 46.8895 4.65727 46.7458 4.58562 46.3864C4.58562 46.027 2.86596 44.5175 2.86596 43.7268C2.93761 43.5112 2.93761 43.5831 2.93761 43.2237Z" fill="#0778D4"/>
<path d="M6.52051 43.1521V48.1118H10.3181V46.818H8.16851V43.1521H6.52051Z" fill="#0778D4"/>
<path d="M6.5918 43.2237H8.0965V46.8896H10.2461V48.0396H6.5918V43.2237Z" fill="#0778D4"/>
<path d="M27.8728 43.1521C27.4429 43.1521 25.2933 43.2959 25.2217 45.596C25.2217 46.3148 25.4366 46.8898 25.8665 47.3211C26.2965 47.8243 27.013 48.0399 27.8012 48.0399H29.3059V46.818H28.876C28.661 46.818 28.446 46.818 28.2311 46.818C27.8012 46.7461 27.013 46.5305 27.013 45.5241C27.013 44.8054 27.5146 44.3741 28.2311 44.3741H29.3059V43.1521H27.8728Z" fill="#0778D4"/>
<path d="M27.8725 43.2237H29.2339V44.3737H28.1591C27.4425 44.3737 26.941 44.805 26.941 45.5957C26.941 46.4582 27.5142 46.8176 28.1591 46.8895C28.5173 46.8895 28.8039 46.8895 29.2339 46.8895V48.0396H27.8008C26.2961 48.0396 25.293 47.1052 25.293 45.5957C25.293 43.655 26.8693 43.2237 27.8725 43.2237Z" fill="#0778D4"/>
<path d="M20.0623 44.8049H18.5576V48.0394H20.0623V44.8049Z" fill="#0778D4"/>
<path d="M20.0629 44.8764H18.6299V48.0391H20.0629V44.8764Z" fill="#0778D4"/>
<path d="M22.7861 43.1521V43.5834H22.8578C22.9294 43.5834 23.0727 43.5834 23.0727 43.7272V47.5368C23.0727 47.6086 22.8578 47.6805 22.7861 47.7524V48.1118H25.079V47.7524H25.0074C25.0074 47.7524 24.7924 47.7524 24.7924 47.6086V43.7991C24.7924 43.6553 25.0074 43.6553 25.0074 43.6553V43.2959H22.7861V43.1521Z" fill="#0778D4"/>
<path d="M22.8564 43.2237H25.0777V43.5112C25.0777 43.5112 24.7911 43.5831 24.7911 43.7268V47.5364C24.7911 47.7521 25.0777 47.7521 25.0777 47.7521V48.0396H22.8564V47.7521C22.8564 47.7521 23.1431 47.6802 23.1431 47.5364V43.7268C23.0714 43.5831 22.8564 43.5831 22.8564 43.5831V43.2237Z" fill="#0778D4"/>
<path d="M13.1121 44.8772C13.2554 45.2366 13.542 46.1711 13.6136 46.4586H12.6822C12.7538 46.2429 13.0404 45.3085 13.1121 44.8772ZM12.6105 43.1521L12.8971 43.7991C12.9688 43.9428 12.9688 44.0147 13.1121 44.3022H11.8223L10.4609 47.8962V48.0399H12.3239V47.968C12.3239 47.968 12.3239 47.8243 12.3956 47.7524H14.1869C14.1869 47.8243 14.2585 47.8962 14.2585 48.0399H16.1931V47.8962L14.3302 43.1521H12.6105Z" fill="#0778D4"/>
<path d="M12.6825 46.4583C12.6825 46.4583 13.1124 45.0207 13.1841 44.7332C13.1841 44.8051 13.7573 46.4583 13.7573 46.4583H12.6825ZM14.2589 43.2237H12.6109C12.8975 43.9425 12.8258 43.7269 13.1124 44.3738H11.751L10.3896 47.9678V48.0396H12.181C12.181 48.0396 12.181 47.8959 12.2526 47.7521H14.0439C14.0439 47.7521 14.0439 47.8959 14.1156 48.0396H16.0502V47.9678L14.2589 43.2237Z" fill="#0778D4"/>
<path d="M15.0472 33.8069V33.2319L14.9039 32.9444V32.6569C14.9755 32.585 15.0472 32.5131 15.0472 32.5131C15.0472 32.4412 15.0472 32.4412 15.0472 32.4412C15.0472 32.4412 14.9039 32.585 14.7606 32.585C14.6173 32.585 14.4739 32.5131 14.4739 32.2975C14.4739 32.0818 14.6173 32.01 14.7606 32.01C14.9039 32.01 15.0472 32.2256 15.0472 32.2256V32.1537C15.0472 32.1537 14.9039 31.8662 14.6173 31.8662C14.4023 31.8662 14.1157 32.0818 14.1157 32.2975C14.1157 32.5131 14.259 32.6569 14.4023 32.7288V33.0163L14.259 33.3038V33.8788C8.81341 34.8132 20.5644 34.6695 15.0472 33.8069Z" fill="#0778D4"/>
<path d="M91.5919 55.7225H85.3629C85.0962 55.7225 84.9629 55.5892 84.9629 55.3225V43.8741C84.9629 43.6074 85.0962 43.4741 85.3629 43.4741H91.5919C91.8459 43.4741 91.9729 43.6074 91.9729 43.8741V45.1694C91.9729 45.4361 91.8459 45.5695 91.5919 45.5695H87.6107C87.4583 45.5695 87.3821 45.6393 87.3821 45.779V48.2554C87.3821 48.3951 87.4583 48.4649 87.6107 48.4649H91.0585C91.3252 48.4649 91.4585 48.5982 91.4585 48.8649V50.1602C91.4585 50.4269 91.3252 50.5603 91.0585 50.5603H87.6107C87.4583 50.5603 87.3821 50.6301 87.3821 50.7698V53.4176C87.3821 53.5573 87.4583 53.6271 87.6107 53.6271H91.5919C91.8459 53.6271 91.9729 53.7605 91.9729 54.0272V55.3225C91.9729 55.5892 91.8459 55.7225 91.5919 55.7225Z" fill="#0778D4"/>
<path d="M74.3901 52.5985V52.2175C74.3901 51.9508 74.5235 51.8175 74.7902 51.8175H76.4093C76.676 51.8175 76.8093 51.9508 76.8093 52.2175V52.3699C76.8093 52.8525 76.9046 53.1827 77.0951 53.3605C77.2856 53.5382 77.6348 53.6271 78.1428 53.6271H79.0381C79.5333 53.6271 79.8762 53.5319 80.0667 53.3414C80.2699 53.1509 80.3715 52.7953 80.3715 52.2747V52.0461C80.3715 51.6778 80.2191 51.3984 79.9143 51.2079C79.6222 51.0047 79.2539 50.8841 78.8095 50.846C78.365 50.8079 77.8824 50.7381 77.3618 50.6365C76.8538 50.5222 76.3776 50.3825 75.9331 50.2174C75.4886 50.0396 75.114 49.7031 74.8092 49.2078C74.5171 48.6998 74.3711 48.0522 74.3711 47.2648V46.5981C74.3711 45.6076 74.6505 44.8393 75.2092 44.2932C75.768 43.7471 76.5427 43.4741 77.5332 43.4741H79.4381C80.4413 43.4741 81.2223 43.7471 81.7811 44.2932C82.3399 44.8393 82.6192 45.6076 82.6192 46.5981V46.96C82.6192 47.2267 82.4859 47.3601 82.2192 47.3601H80.6001C80.3334 47.3601 80.2 47.2267 80.2 46.96V46.8457C80.2 46.3505 80.1048 46.0139 79.9143 45.8362C79.7238 45.6584 79.3746 45.5695 78.8666 45.5695H78.1237C77.603 45.5695 77.2475 45.6711 77.057 45.8743C76.8792 46.0647 76.7903 46.4457 76.7903 47.0172V47.3791C76.7903 47.976 77.311 48.3189 78.3523 48.4077C79.4317 48.4966 80.3905 48.7125 81.2287 49.0554C81.6732 49.2459 82.0414 49.5888 82.3335 50.0841C82.6383 50.5666 82.7907 51.1889 82.7907 51.9508V52.5985C82.7907 53.589 82.5113 54.3573 81.9525 54.9034C81.3938 55.4495 80.6191 55.7225 79.6286 55.7225H77.5523C76.5617 55.7225 75.7871 55.4495 75.2283 54.9034C74.6695 54.3573 74.3901 53.589 74.3901 52.5985Z" fill="#0778D4"/>
<path d="M64.1216 52.5985V52.2175C64.1216 51.9508 64.2549 51.8175 64.5216 51.8175H66.1408C66.4074 51.8175 66.5408 51.9508 66.5408 52.2175V52.3699C66.5408 52.8525 66.636 53.1827 66.8265 53.3605C67.017 53.5382 67.3662 53.6271 67.8742 53.6271H68.7695C69.2648 53.6271 69.6077 53.5319 69.7981 53.3414C70.0013 53.1509 70.1029 52.7953 70.1029 52.2747V52.0461C70.1029 51.6778 69.9505 51.3984 69.6458 51.2079C69.3537 51.0047 68.9854 50.8841 68.5409 50.846C68.0964 50.8079 67.6139 50.7381 67.0932 50.6365C66.5852 50.5222 66.109 50.3825 65.6645 50.2174C65.2201 50.0396 64.8454 49.7031 64.5407 49.2078C64.2486 48.6998 64.1025 48.0522 64.1025 47.2648V46.5981C64.1025 45.6076 64.3819 44.8393 64.9407 44.2932C65.4995 43.7471 66.2741 43.4741 67.2646 43.4741H69.1695C70.1728 43.4741 70.9538 43.7471 71.5125 44.2932C72.0713 44.8393 72.3507 45.6076 72.3507 46.5981V46.96C72.3507 47.2267 72.2174 47.3601 71.9507 47.3601H70.3315C70.0648 47.3601 69.9315 47.2267 69.9315 46.96V46.8457C69.9315 46.3505 69.8362 46.0139 69.6458 45.8362C69.4553 45.6584 69.106 45.5695 68.5981 45.5695H67.8552C67.3345 45.5695 66.9789 45.6711 66.7884 45.8743C66.6106 46.0647 66.5217 46.4457 66.5217 47.0172V47.3791C66.5217 47.976 67.0424 48.3189 68.0837 48.4077C69.1632 48.4966 70.122 48.7125 70.9601 49.0554C71.4046 49.2459 71.7729 49.5888 72.065 50.0841C72.3697 50.5666 72.5221 51.1889 72.5221 51.9508V52.5985C72.5221 53.589 72.2427 54.3573 71.684 54.9034C71.1252 55.4495 70.3506 55.7225 69.36 55.7225H67.2837C66.2932 55.7225 65.5185 55.4495 64.9597 54.9034C64.401 54.3573 64.1216 53.589 64.1216 52.5985Z" fill="#0778D4"/>
<path d="M61.8626 43.8741V55.3225C61.8626 55.5892 61.7292 55.7225 61.4625 55.7225H59.8434C59.5767 55.7225 59.4434 55.5892 59.4434 55.3225V43.8741C59.4434 43.6074 59.5767 43.4741 59.8434 43.4741H61.4625C61.7292 43.4741 61.8626 43.6074 61.8626 43.8741Z" fill="#0778D4"/>
<path d="M54.9561 43.4741H56.5562C56.8356 43.4741 56.9752 43.6011 56.9752 43.8551V52.6175C56.9752 53.6081 56.6959 54.3764 56.1371 54.9225C55.591 55.4558 54.8227 55.7225 53.8322 55.7225H51.7368C50.7336 55.7225 49.9589 55.4558 49.4129 54.9225C48.8668 54.3891 48.5938 53.6208 48.5938 52.6175V43.8741C48.5938 43.6074 48.7271 43.4741 48.9938 43.4741H50.6129C50.8796 43.4741 51.013 43.6074 51.013 43.8741V52.5033C51.013 52.9096 51.0955 53.2017 51.2606 53.3795C51.4384 53.5446 51.7241 53.6271 52.1178 53.6271H53.4322C53.8385 53.6271 54.1243 53.5446 54.2894 53.3795C54.4671 53.2017 54.556 52.9096 54.556 52.5033V43.8741C54.556 43.6074 54.6894 43.4741 54.9561 43.4741Z" fill="#0778D4"/>
<path d="M38.1157 52.5985V52.2175C38.1157 51.9508 38.2491 51.8175 38.5158 51.8175H40.1349C40.4016 51.8175 40.5349 51.9508 40.5349 52.2175V52.3699C40.5349 52.8525 40.6302 53.1827 40.8207 53.3605C41.0112 53.5382 41.3604 53.6271 41.8684 53.6271H42.7636C43.2589 53.6271 43.6018 53.5319 43.7923 53.3414C43.9955 53.1509 44.0971 52.7953 44.0971 52.2747V52.0461C44.0971 51.6778 43.9447 51.3984 43.6399 51.2079C43.3478 51.0047 42.9795 50.8841 42.5351 50.846C42.0906 50.8079 41.608 50.7381 41.0873 50.6365C40.5794 50.5222 40.1032 50.3825 39.6587 50.2174C39.2142 50.0396 38.8396 49.7031 38.5348 49.2078C38.2427 48.6998 38.0967 48.0522 38.0967 47.2648V46.5981C38.0967 45.6076 38.3761 44.8393 38.9348 44.2932C39.4936 43.7471 40.2682 43.4741 41.2588 43.4741H43.1637C44.1669 43.4741 44.9479 43.7471 45.5067 44.2932C46.0655 44.8393 46.3448 45.6076 46.3448 46.5981V46.96C46.3448 47.2267 46.2115 47.3601 45.9448 47.3601H44.3257C44.059 47.3601 43.9256 47.2267 43.9256 46.96V46.8457C43.9256 46.3505 43.8304 46.0139 43.6399 45.8362C43.4494 45.6584 43.1002 45.5695 42.5922 45.5695H41.8493C41.3286 45.5695 40.9731 45.6711 40.7826 45.8743C40.6048 46.0647 40.5159 46.4457 40.5159 47.0172V47.3791C40.5159 47.976 41.0366 48.3189 42.0779 48.4077C43.1573 48.4966 44.1161 48.7125 44.9543 49.0554C45.3987 49.2459 45.767 49.5888 46.0591 50.0841C46.3639 50.5666 46.5163 51.1889 46.5163 51.9508V52.5985C46.5163 53.589 46.2369 54.3573 45.6781 54.9034C45.1194 55.4495 44.3447 55.7225 43.3542 55.7225H41.2778C40.2873 55.7225 39.5126 55.4495 38.9539 54.9034C38.3951 54.3573 38.1157 53.589 38.1157 52.5985Z" fill="#0778D4"/>
<path d="M82.7223 39.6043H81.1032C80.8365 39.6043 80.7031 39.4709 80.7031 39.2042V27.7559C80.7031 27.4892 80.8365 27.3558 81.1032 27.3558H87.1797C87.4337 27.3558 87.5607 27.4892 87.5607 27.7559V29.0512C87.5607 29.3179 87.4337 29.4512 87.1797 29.4512H83.3509C83.1985 29.4512 83.1223 29.5211 83.1223 29.6607V32.4228C83.1223 32.5752 83.1985 32.6514 83.3509 32.6514H86.7988C87.0654 32.6514 87.1988 32.7848 87.1988 33.0514V34.3277C87.1988 34.6071 87.0654 34.7468 86.7988 34.7468H83.3509C83.1985 34.7468 83.1223 34.8166 83.1223 34.9563V39.2042C83.1223 39.4709 82.989 39.6043 82.7223 39.6043Z" fill="#0778D4"/>
<path d="M78.2169 39.6043H71.9879C71.7212 39.6043 71.5879 39.4709 71.5879 39.2042V27.7559C71.5879 27.4892 71.7212 27.3558 71.9879 27.3558H78.2169C78.4709 27.3558 78.5979 27.4892 78.5979 27.7559V29.0512C78.5979 29.3179 78.4709 29.4512 78.2169 29.4512H74.2357C74.0833 29.4512 74.0071 29.5211 74.0071 29.6607V32.1371C74.0071 32.2768 74.0833 32.3466 74.2357 32.3466H77.6835C77.9502 32.3466 78.0836 32.48 78.0836 32.7467V34.042C78.0836 34.3087 77.9502 34.442 77.6835 34.442H74.2357C74.0833 34.442 74.0071 34.5119 74.0071 34.6515V37.2993C74.0071 37.439 74.0833 37.5089 74.2357 37.5089H78.2169C78.4709 37.5089 78.5979 37.6422 78.5979 37.9089V39.2042C78.5979 39.4709 78.4709 39.6043 78.2169 39.6043Z" fill="#0778D4"/>
<path d="M69.0247 27.7559V39.2042C69.0247 39.4709 68.8913 39.6043 68.6246 39.6043H67.0055C66.7388 39.6043 66.6055 39.4709 66.6055 39.2042V27.7559C66.6055 27.4892 66.7388 27.3558 67.0055 27.3558H68.6246C68.8913 27.3558 69.0247 27.4892 69.0247 27.7559Z" fill="#0778D4"/>
<path d="M64.6192 39.6043H58.3522C58.0855 39.6043 57.9521 39.4709 57.9521 39.2042V27.7559C57.9521 27.4892 58.0855 27.3558 58.3522 27.3558H59.9713C60.238 27.3558 60.3714 27.4892 60.3714 27.7559V37.2803C60.3714 37.42 60.4475 37.4898 60.5999 37.4898H64.6192C64.8732 37.4898 65.0002 37.6295 65.0002 37.9089V39.2042C65.0002 39.4709 64.8732 39.6043 64.6192 39.6043Z" fill="#0778D4"/>
<path d="M55.4669 39.6043H49.2379C48.9712 39.6043 48.8379 39.4709 48.8379 39.2042V27.7559C48.8379 27.4892 48.9712 27.3558 49.2379 27.3558H55.4669C55.7209 27.3558 55.8479 27.4892 55.8479 27.7559V29.0512C55.8479 29.3179 55.7209 29.4512 55.4669 29.4512H51.4857C51.3333 29.4512 51.2571 29.5211 51.2571 29.6607V32.1371C51.2571 32.2768 51.3333 32.3466 51.4857 32.3466H54.9335C55.2002 32.3466 55.3335 32.48 55.3335 32.7467V34.042C55.3335 34.3087 55.2002 34.442 54.9335 34.442H51.4857C51.3333 34.442 51.2571 34.5119 51.2571 34.6515V37.2993C51.2571 37.439 51.3333 37.5089 51.4857 37.5089H55.4669C55.7209 37.5089 55.8479 37.6422 55.8479 37.9089V39.2042C55.8479 39.4709 55.7209 39.6043 55.4669 39.6043Z" fill="#0778D4"/>
<path d="M40.4391 39.6043H38.8199C38.5533 39.6043 38.4199 39.4709 38.4199 39.2042V27.7559C38.4199 27.4892 38.5533 27.3558 38.8199 27.3558H43.3536C44.3441 27.3558 45.1188 27.6289 45.6775 28.1749C46.2363 28.721 46.5157 29.4893 46.5157 30.4799V31.9657C46.5157 33.4007 45.9506 34.3531 44.8203 34.823V34.8992L46.8586 39.1471C46.9729 39.4519 46.8649 39.6043 46.5347 39.6043H44.9918C44.7632 39.6043 44.5981 39.5789 44.4965 39.5281C44.3949 39.4773 44.3124 39.3693 44.2489 39.2042L42.344 35.0897H41.0677C40.9153 35.0897 40.8391 35.1595 40.8391 35.2992V39.2042C40.8391 39.4709 40.7058 39.6043 40.4391 39.6043ZM41.0487 33.1467H42.9155C43.3218 33.1467 43.6203 33.0641 43.8107 32.8991C44.0012 32.7213 44.0965 32.4419 44.0965 32.0609V30.5751C44.0965 30.1814 44.0012 29.8957 43.8107 29.7179C43.6203 29.5401 43.3218 29.4512 42.9155 29.4512H41.0487C40.909 29.4512 40.8391 29.5211 40.8391 29.6607V32.9372C40.8391 33.0768 40.909 33.1467 41.0487 33.1467Z" fill="#0778D4"/>
<path d="M96.8571 23.486H94.7808C93.7775 23.486 93.0029 23.2193 92.4568 22.6859C91.9107 22.1526 91.6377 21.3843 91.6377 20.381V14.3425C91.6377 13.3393 91.9107 12.571 92.4568 12.0376C93.0029 11.5043 93.7775 11.2376 94.7808 11.2376H96.8571C97.8476 11.2376 98.6159 11.5106 99.162 12.0567C99.7208 12.59 100 13.352 100 14.3425V15.2378C100 15.5172 99.8605 15.6569 99.5811 15.6569H97.981C97.7143 15.6569 97.5809 15.5172 97.5809 15.2378V14.4568C97.5809 14.0505 97.492 13.7647 97.3143 13.5996C97.1492 13.4218 96.8634 13.333 96.4571 13.333H95.1617C94.7681 13.333 94.4823 13.4218 94.3045 13.5996C94.1394 13.7647 94.0569 14.0505 94.0569 14.4568V20.2667C94.0569 20.6731 94.1394 20.9652 94.3045 21.143C94.4823 21.3081 94.7681 21.3906 95.1617 21.3906H96.4571C96.8634 21.3906 97.1492 21.3081 97.3143 21.143C97.492 20.9652 97.5809 20.6731 97.5809 20.2667V19.4857C97.5809 19.2063 97.7143 19.0667 97.981 19.0667H99.5811C99.8605 19.0667 100 19.2063 100 19.4857V20.381C100 21.3716 99.7208 22.1399 99.162 22.6859C98.6159 23.2193 97.8476 23.486 96.8571 23.486Z" fill="#0778D4"/>
<path d="M89.2639 11.6376V23.086C89.2639 23.3526 89.1306 23.486 88.8639 23.486H87.2448C86.9781 23.486 86.8447 23.3526 86.8447 23.086V11.6376C86.8447 11.3709 86.9781 11.2376 87.2448 11.2376H88.8639C89.1306 11.2376 89.2639 11.3709 89.2639 11.6376Z" fill="#0778D4"/>
<path d="M81.0616 11.2376H83.8808C84.1475 11.2376 84.2809 11.3709 84.2809 11.6376V23.086C84.2809 23.3526 84.1475 23.486 83.8808 23.486H82.3188C82.0521 23.486 81.9188 23.3526 81.9188 23.086V14.0568H81.8426L79.8996 20.4382C79.8234 20.6922 79.6647 20.8192 79.4234 20.8192H77.8233C77.582 20.8192 77.4233 20.6922 77.3471 20.4382L75.366 14.0378H75.2898V23.086C75.2898 23.2384 75.2644 23.3463 75.2136 23.4098C75.1628 23.4606 75.0549 23.486 74.8898 23.486H73.3278C73.0611 23.486 72.9277 23.3526 72.9277 23.086V11.6376C72.9277 11.3709 73.0611 11.2376 73.3278 11.2376H76.166C76.3438 11.2376 76.4645 11.3265 76.528 11.5043L78.5471 18.2285H78.6614L80.6997 11.5043C80.7378 11.3265 80.8584 11.2376 81.0616 11.2376Z" fill="#0778D4"/>
<path d="M63.7148 23.486H61.8861C61.6575 23.486 61.5813 23.3526 61.6575 23.086L64.6672 11.6376C64.7561 11.3709 64.9466 11.2376 65.2387 11.2376H67.7722C68.0896 11.2376 68.2801 11.3709 68.3436 11.6376L71.3533 23.086C71.4295 23.3526 71.3533 23.486 71.1248 23.486H69.2961C69.1564 23.486 69.0611 23.4606 69.0103 23.4098C68.9595 23.3463 68.9214 23.2384 68.896 23.086L68.3627 20.9906H64.6482L64.1148 23.086C64.0894 23.2384 64.0449 23.3463 63.9814 23.4098C63.9306 23.4606 63.8417 23.486 63.7148 23.486ZM66.4768 13.5425L65.1053 19.0476H67.9246L66.553 13.5425H66.4768Z" fill="#0778D4"/>
<path d="M60.4347 23.486H54.1676C53.9009 23.486 53.7676 23.3526 53.7676 23.086V11.6376C53.7676 11.3709 53.9009 11.2376 54.1676 11.2376H55.7868C56.0534 11.2376 56.1868 11.3709 56.1868 11.6376V21.162C56.1868 21.3017 56.263 21.3716 56.4154 21.3716H60.4347C60.6887 21.3716 60.8157 21.5113 60.8157 21.7906V23.086C60.8157 23.3526 60.6887 23.486 60.4347 23.486Z" fill="#0778D4"/>
<path d="M43.1939 20.362V19.981C43.1939 19.7143 43.3272 19.581 43.5939 19.581H45.213C45.4797 19.581 45.6131 19.7143 45.6131 19.981V20.1334C45.6131 20.616 45.7083 20.9461 45.8988 21.1239C46.0893 21.3017 46.4385 21.3906 46.9465 21.3906H47.8418C48.337 21.3906 48.6799 21.2954 48.8704 21.1049C49.0736 20.9144 49.1752 20.5588 49.1752 20.0381V19.8096C49.1752 19.4413 49.0228 19.1619 48.718 18.9714C48.4259 18.7682 48.0577 18.6476 47.6132 18.6095C47.1687 18.5714 46.6861 18.5015 46.1655 18.3999C45.6575 18.2857 45.1813 18.146 44.7368 17.9809C44.2923 17.8031 43.9177 17.4666 43.6129 16.9713C43.3208 16.4633 43.1748 15.8157 43.1748 15.0283V14.3616C43.1748 13.371 43.4542 12.6027 44.013 12.0567C44.5717 11.5106 45.3464 11.2376 46.3369 11.2376H48.2418C49.245 11.2376 50.026 11.5106 50.5848 12.0567C51.1436 12.6027 51.423 13.371 51.423 14.3616V14.7235C51.423 14.9902 51.2896 15.1235 51.0229 15.1235H49.4038C49.1371 15.1235 49.0038 14.9902 49.0038 14.7235V14.6092C49.0038 14.114 48.9085 13.7774 48.718 13.5996C48.5275 13.4218 48.1783 13.333 47.6703 13.333H46.9274C46.4068 13.333 46.0512 13.4345 45.8607 13.6377C45.6829 13.8282 45.594 14.2092 45.594 14.7807V15.1426C45.594 15.7395 46.1147 16.0823 47.156 16.1712C48.2355 16.2601 49.1942 16.476 50.0324 16.8189C50.4769 17.0094 50.8451 17.3523 51.1372 17.8475C51.442 18.3301 51.5944 18.9524 51.5944 19.7143V20.362C51.5944 21.3525 51.315 22.1208 50.7562 22.6669C50.1975 23.213 49.4228 23.486 48.4323 23.486H46.356C45.3654 23.486 44.5908 23.213 44.032 22.6669C43.4732 22.1208 43.1939 21.3525 43.1939 20.362Z" fill="#0778D4"/>
<path d="M40.9348 11.6376V23.086C40.9348 23.3526 40.8015 23.486 40.5348 23.486H38.9157C38.649 23.486 38.5156 23.3526 38.5156 23.086V11.6376C38.5156 11.3709 38.649 11.2376 38.9157 11.2376H40.5348C40.8015 11.2376 40.9348 11.3709 40.9348 11.6376Z" fill="#0778D4"/>
</svg>
