<svg width="15" height="15" viewBox="0 0 15 15" fill="none" xmlns="http://www.w3.org/2000/svg">
<g clip-path="url(#clip0_2306_4165)">
<path d="M12.7807 12.7809H10.5582V9.30023C10.5582 8.47025 10.5434 7.4018 9.40225 7.4018C8.24467 7.4018 8.06754 8.30613 8.06754 9.23982V12.7806H5.84508V5.62307H7.97865V6.60123H8.00854C8.22206 6.23613 8.5306 5.93579 8.90132 5.73218C9.27203 5.52857 9.69103 5.42932 10.1137 5.445C12.3663 5.445 12.7816 6.92672 12.7816 8.85433L12.7807 12.7809ZM3.33727 4.64473C2.62494 4.64484 2.04738 4.06746 2.04727 3.35514C2.04715 2.64281 2.62447 2.06525 3.3368 2.06514C4.04912 2.06496 4.62668 2.64234 4.6268 3.35467C4.62686 3.69674 4.49103 4.02483 4.2492 4.26676C4.00737 4.50869 3.67934 4.64465 3.33727 4.64473ZM4.44855 12.7809H2.22369V5.62307H4.4485V12.7809L4.44855 12.7809ZM13.8887 0.00105357H1.10689C0.502793 -0.00574331 0.00738281 0.478182 0 1.08228V13.9174C0.00714844 14.5218 0.5025 15.0062 1.10684 14.9999H13.8887C14.4943 15.0074 14.9916 14.523 15 13.9174V1.08129C14.9914 0.476014 14.494 -0.00785268 13.8887 5.74717e-05" fill="white"/>
</g>
<defs>
<clipPath id="clip0_2306_4165">
<rect width="15" height="15" fill="white"/>
</clipPath>
</defs>
</svg>
