<svg width="17" height="17" viewBox="0 0 17 17" fill="none" xmlns="http://www.w3.org/2000/svg">
<path d="M10.0453 9.46776L11.8422 10.3646C11.757 10.7902 11.5268 11.1731 11.1909 11.4479C10.8549 11.7227 10.434 11.8725 10 11.8717C8.50867 11.87 7.07889 11.2768 6.02435 10.2223C4.96982 9.16778 4.37665 7.738 4.375 6.24667C4.37488 5.81317 4.52497 5.39302 4.79974 5.05772C5.0745 4.72241 5.45696 4.49268 5.88203 4.40761L6.77891 6.20448L6.01562 7.34042C5.95859 7.42598 5.92354 7.52429 5.91359 7.62663C5.90365 7.72898 5.9191 7.83219 5.95859 7.92714C6.40577 8.98994 7.25126 9.83543 8.31406 10.2826C8.40929 10.3239 8.51329 10.3407 8.61668 10.3317C8.72007 10.3227 8.81958 10.2881 8.90625 10.231L10.0453 9.46776ZM16.25 8.12167C16.2503 9.52443 15.8874 10.9034 15.1967 12.1243C14.506 13.3452 13.5109 14.3665 12.3084 15.0887C11.1058 15.811 9.73678 16.2096 8.33448 16.2457C6.93219 16.2819 5.54442 15.9544 4.30625 15.2951L1.64609 16.1818C1.42585 16.2553 1.1895 16.2659 0.963537 16.2126C0.737574 16.1593 0.530927 16.0441 0.366759 15.8799C0.20259 15.7157 0.0873863 15.5091 0.0340605 15.2831C-0.0192652 15.0572 -0.00860599 14.8208 0.0648435 14.6006L0.951562 11.9404C0.371991 10.8508 0.048279 9.64337 0.00499792 8.40993C-0.0382831 7.17648 0.200004 5.94938 0.701773 4.82177C1.20354 3.69417 1.9556 2.69569 2.90087 1.90213C3.84614 1.10857 4.95977 0.54079 6.15724 0.241882C7.35471 -0.0570254 8.60453 -0.0792028 9.81185 0.177033C11.0192 0.433269 12.1522 0.961184 13.1251 1.72071C14.0979 2.48023 14.8849 3.4514 15.4264 4.56049C15.9678 5.66959 16.2495 6.88746 16.25 8.12167ZM13.125 9.99667C13.1251 9.88056 13.0928 9.76672 13.0318 9.66791C12.9708 9.56911 12.8835 9.48925 12.7797 9.43729L10.2797 8.18729C10.1813 8.13825 10.0717 8.11604 9.96194 8.1229C9.85221 8.12976 9.74622 8.16544 9.65469 8.22635L8.50703 8.99198C7.9802 8.70236 7.54665 8.26881 7.25703 7.74198L8.02266 6.59432C8.08357 6.50279 8.11925 6.3968 8.12611 6.28707C8.13297 6.17733 8.11076 6.06773 8.06172 5.96932L6.81172 3.46932C6.75991 3.36469 6.67982 3.27666 6.58054 3.21522C6.48126 3.15377 6.36676 3.12136 6.25 3.12167C5.4212 3.12167 4.62634 3.45091 4.04029 4.03696C3.45424 4.62301 3.125 5.41787 3.125 6.24667C3.12707 8.0694 3.85206 9.81688 5.14092 11.1057C6.42979 12.3946 8.17727 13.1196 10 13.1217C10.4104 13.1217 10.8167 13.0408 11.1959 12.8838C11.575 12.7267 11.9195 12.4966 12.2097 12.2064C12.4999 11.9162 12.7301 11.5717 12.8871 11.1926C13.0442 10.8134 13.125 10.407 13.125 9.99667Z" fill="white"/>
</svg>
