<svg width="42" height="42" viewBox="0 0 42 42" fill="none" xmlns="http://www.w3.org/2000/svg">
<rect width="42" height="42" rx="21" fill="#FDEB78"/>
<path d="M31.0326 13.4246C29.8419 12.2374 28.2297 11.5696 26.5483 11.5671C24.8668 11.5646 23.2527 12.2276 22.0584 13.4113L21.0002 14.3936L19.942 13.4113C18.7481 12.2204 17.1301 11.5526 15.4438 11.5547C13.7576 11.5568 12.1412 12.2287 10.9503 13.4226C9.75948 14.6164 9.09164 16.2345 9.09376 17.9207C9.09587 19.607 9.76776 21.2233 10.9616 22.4142L20.1235 31.7094C20.238 31.8256 20.3745 31.918 20.525 31.981C20.6755 32.044 20.837 32.0765 21.0002 32.0765C21.1634 32.0765 21.3249 32.044 21.4754 31.981C21.6259 31.918 21.7624 31.8256 21.8769 31.7094L31.0326 22.4204C31.6233 21.83 32.0918 21.129 32.4114 20.3575C32.7311 19.586 32.8956 18.7591 32.8956 17.924C32.8956 17.0889 32.7311 16.262 32.4114 15.4905C32.0918 14.719 31.6233 14.0181 31.0326 13.4277V13.4246ZM29.2895 20.6834L21.0002 29.0895L12.7079 20.6762C11.9796 19.9449 11.5712 18.9546 11.5723 17.9226C11.5734 16.8906 11.9838 15.9012 12.7136 15.1714C13.4433 14.4417 14.4328 14.0312 15.4648 14.0302C16.4968 14.0291 17.4871 14.4375 18.2183 15.1657C18.2286 15.176 18.2388 15.1862 18.2501 15.1955L20.1614 16.9755C20.3892 17.1877 20.6889 17.3057 21.0002 17.3057C21.3115 17.3057 21.6112 17.1877 21.839 16.9755L23.7503 15.1955C23.7616 15.1862 23.7718 15.176 23.7821 15.1657C24.1444 14.8043 24.5743 14.5178 25.0473 14.3225C25.5204 14.1273 26.0272 14.0271 26.5389 14.0277C27.0507 14.0283 27.5573 14.1297 28.0298 14.3261C28.5024 14.5225 28.9316 14.8101 29.293 15.1724C29.6545 15.5347 29.941 15.9646 30.1362 16.4376C30.3315 16.9107 30.4317 17.4175 30.4311 17.9293C30.4305 18.441 30.329 18.9476 30.1326 19.4202C29.9362 19.8927 29.6487 20.3219 29.2864 20.6834H29.2895Z" fill="#1E1F24"/>
</svg>
