<svg width="17" height="12" viewBox="0 0 17 12" fill="none" xmlns="http://www.w3.org/2000/svg">
<path d="M8.61555 11.6485L5.23039 11.5852C4.13435 11.5632 3.03558 11.6072 1.96103 11.3788C0.326393 11.0375 0.21059 9.3643 0.0894135 7.96076C-0.0775549 5.98756 -0.0129164 3.97854 0.302174 2.02181C0.480054 0.923884 1.18008 0.268741 2.26265 0.197449C5.91711 -0.0612802 9.59587 -0.0306181 13.2422 0.0900883C13.6273 0.101154 14.0151 0.161634 14.3948 0.230476C16.2692 0.566241 16.3149 2.4624 16.4364 4.05862C16.5576 5.6713 16.5065 7.29227 16.2749 8.89397C16.089 10.2201 15.7335 11.3323 14.2332 11.4396C12.3534 11.58 10.5168 11.693 8.63167 11.657C8.63175 11.6485 8.62092 11.6485 8.61555 11.6485ZM6.6254 8.29103C8.04199 7.45986 9.43154 6.64253 10.84 5.81693C9.4208 4.98575 8.03389 4.16843 6.6254 3.34283V8.29103Z" fill="white"/>
</svg>
